<svg width="488" height="191" viewBox="0 0 488 191" fill="none" xmlns="http://www.w3.org/2000/svg">
<mask id="mask0_71_49042" style="mask-type:alpha" maskUnits="userSpaceOnUse" x="0" y="17" width="403" height="163">
<path d="M402.38 41.9453C402.38 28.6905 391.635 17.9453 378.38 17.9453H80.5734C36.0739 17.9453 0 54.0193 0 98.5189V98.5189C0 143.018 36.074 179.092 80.5735 179.092H378.38C391.635 179.092 402.38 168.347 402.38 155.092V41.9453Z" fill="#D9D9D9"/>
</mask>
<g mask="url(#mask0_71_49042)">
<ellipse cx="5.82495" cy="6.03253" rx="5.82495" ry="6.03253" transform="matrix(-1 0 0 1 410.728 14.7041)" fill="#F2F4F7"/>
<ellipse cx="5.82495" cy="6.03253" rx="5.82495" ry="6.03253" transform="matrix(-1 0 0 1 394.164 14.7041)" fill="#F2F4F7"/>
<ellipse cx="5.82495" cy="6.03253" rx="5.82495" ry="6.03253" transform="matrix(-1 0 0 1 377.602 14.7041)" fill="#F2F4F7"/>
<ellipse cx="5.82495" cy="6.03253" rx="5.82495" ry="6.03253" transform="matrix(-1 0 0 1 361.037 14.7041)" fill="#F2F4F7"/>
<ellipse cx="5.82495" cy="6.03253" rx="5.82495" ry="6.03253" transform="matrix(-1 0 0 1 344.475 14.7041)" fill="#F2F4F7"/>
<ellipse cx="5.82495" cy="6.03253" rx="5.82495" ry="6.03253" transform="matrix(-1 0 0 1 327.911 14.7041)" fill="#F2F4F7"/>
<ellipse cx="5.82495" cy="6.03253" rx="5.82495" ry="6.03253" transform="matrix(-1 0 0 1 311.348 14.7041)" fill="#F2F4F7"/>
<ellipse cx="5.82495" cy="6.03253" rx="5.82495" ry="6.03253" transform="matrix(-1 0 0 1 294.786 14.7041)" fill="#F2F4F7"/>
<ellipse cx="5.82495" cy="6.03253" rx="5.82495" ry="6.03253" transform="matrix(-1 0 0 1 278.221 14.7041)" fill="#F2F4F7"/>
<ellipse cx="5.82495" cy="6.03253" rx="5.82495" ry="6.03253" transform="matrix(-1 0 0 1 261.659 14.7041)" fill="#F2F4F7"/>
<ellipse cx="5.82495" cy="6.03253" rx="5.82495" ry="6.03253" transform="matrix(-1 0 0 1 245.095 14.7041)" fill="#F2F4F7"/>
<ellipse cx="5.82495" cy="6.03253" rx="5.82495" ry="6.03253" transform="matrix(-1 0 0 1 228.533 14.7041)" fill="#F2F4F7"/>
<ellipse cx="5.82495" cy="6.03253" rx="5.82495" ry="6.03253" transform="matrix(-1 0 0 1 211.968 14.7041)" fill="#F2F4F7"/>
<ellipse cx="5.82495" cy="6.03253" rx="5.82495" ry="6.03253" transform="matrix(-1 0 0 1 195.405 14.7041)" fill="#F2F4F7"/>
<ellipse cx="5.82495" cy="6.03253" rx="5.82495" ry="6.03253" transform="matrix(-1 0 0 1 178.841 14.7041)" fill="#F2F4F7"/>
<ellipse cx="5.82495" cy="6.03253" rx="5.82495" ry="6.03253" transform="matrix(-1 0 0 1 162.278 14.7041)" fill="#F2F4F7"/>
<ellipse cx="5.82495" cy="6.03253" rx="5.82495" ry="6.03253" transform="matrix(-1 0 0 1 145.716 14.7041)" fill="#F2F4F7"/>
<ellipse cx="5.82495" cy="6.03253" rx="5.82495" ry="6.03253" transform="matrix(-1 0 0 1 129.152 14.7041)" fill="#F2F4F7"/>
<ellipse cx="5.82495" cy="6.03253" rx="5.82495" ry="6.03253" transform="matrix(-1 0 0 1 112.587 14.7041)" fill="#F2F4F7"/>
<ellipse cx="5.82495" cy="6.03253" rx="5.82495" ry="6.03253" transform="matrix(-1 0 0 1 96.0259 14.7041)" fill="#F2F4F7"/>
<ellipse cx="5.82495" cy="6.03253" rx="5.82495" ry="6.03253" transform="matrix(-1 0 0 1 79.4619 14.7041)" fill="#F2F4F7"/>
<ellipse cx="5.82495" cy="6.03253" rx="5.82495" ry="6.03253" transform="matrix(-1 0 0 1 62.8989 14.7041)" fill="#F2F4F7"/>
<ellipse cx="5.82495" cy="6.03253" rx="5.82495" ry="6.03253" transform="matrix(-1 0 0 1 46.3354 14.7041)" fill="#F2F4F7"/>
<ellipse cx="5.82495" cy="6.03253" rx="5.82495" ry="6.03253" transform="matrix(-1 0 0 1 29.7729 14.7041)" fill="#F2F4F7"/>
<ellipse cx="5.82495" cy="6.03253" rx="5.82495" ry="6.03253" transform="matrix(-1 0 0 1 13.2085 14.7041)" fill="#F2F4F7"/>
<ellipse cx="5.82495" cy="6.03253" rx="5.82495" ry="6.03253" transform="matrix(-1 0 0 1 402.26 30.4395)" fill="#F2F4F7"/>
<ellipse cx="5.82495" cy="6.03253" rx="5.82495" ry="6.03253" transform="matrix(-1 0 0 1 385.695 30.4395)" fill="#F2F4F7"/>
<ellipse cx="5.82495" cy="6.03253" rx="5.82495" ry="6.03253" transform="matrix(-1 0 0 1 369.134 30.4395)" fill="#F2F4F7"/>
<ellipse cx="5.82495" cy="6.03253" rx="5.82495" ry="6.03253" transform="matrix(-1 0 0 1 352.57 30.4395)" fill="#F2F4F7"/>
<ellipse cx="5.82495" cy="6.03253" rx="5.82495" ry="6.03253" transform="matrix(-1 0 0 1 336.007 30.4395)" fill="#F2F4F7"/>
<ellipse cx="5.82495" cy="6.03253" rx="5.82495" ry="6.03253" transform="matrix(-1 0 0 1 319.442 30.4395)" fill="#F2F4F7"/>
<ellipse cx="5.82495" cy="6.03253" rx="5.82495" ry="6.03253" transform="matrix(-1 0 0 1 302.881 30.4395)" fill="#F2F4F7"/>
<ellipse cx="5.82495" cy="6.03253" rx="5.82495" ry="6.03253" transform="matrix(-1 0 0 1 286.316 30.4395)" fill="#F2F4F7"/>
<ellipse cx="5.82495" cy="6.03253" rx="5.82495" ry="6.03253" transform="matrix(-1 0 0 1 269.754 30.4395)" fill="#F2F4F7"/>
<ellipse cx="5.82495" cy="6.03253" rx="5.82495" ry="6.03253" transform="matrix(-1 0 0 1 253.19 30.4395)" fill="#F2F4F7"/>
<ellipse cx="5.82495" cy="6.03253" rx="5.82495" ry="6.03253" transform="matrix(-1 0 0 1 236.626 30.4395)" fill="#F2F4F7"/>
<ellipse cx="5.82495" cy="6.03253" rx="5.82495" ry="6.03253" transform="matrix(-1 0 0 1 220.063 30.4395)" fill="#F2F4F7"/>
<ellipse cx="5.82495" cy="6.03253" rx="5.82495" ry="6.03253" transform="matrix(-1 0 0 1 203.499 30.4395)" fill="#F2F4F7"/>
<ellipse cx="5.82495" cy="6.03253" rx="5.82495" ry="6.03253" transform="matrix(-1 0 0 1 186.937 30.4395)" fill="#F2F4F7"/>
<ellipse cx="5.82495" cy="6.03253" rx="5.82495" ry="6.03253" transform="matrix(-1 0 0 1 170.374 30.4395)" fill="#F2F4F7"/>
<ellipse cx="5.82495" cy="6.03253" rx="5.82495" ry="6.03253" transform="matrix(-1 0 0 1 153.81 30.4395)" fill="#F2F4F7"/>
<ellipse cx="5.82495" cy="6.03253" rx="5.82495" ry="6.03253" transform="matrix(-1 0 0 1 137.247 30.4395)" fill="#F2F4F7"/>
<ellipse cx="5.82495" cy="6.03253" rx="5.82495" ry="6.03253" transform="matrix(-1 0 0 1 120.684 30.4395)" fill="#F2F4F7"/>
<ellipse cx="5.82495" cy="6.03253" rx="5.82495" ry="6.03253" transform="matrix(-1 0 0 1 104.12 30.4395)" fill="#F2F4F7"/>
<ellipse cx="5.82495" cy="6.03253" rx="5.82495" ry="6.03253" transform="matrix(-1 0 0 1 87.5562 30.4395)" fill="#F2F4F7"/>
<ellipse cx="5.82495" cy="6.03253" rx="5.82495" ry="6.03253" transform="matrix(-1 0 0 1 70.9951 30.4395)" fill="#F2F4F7"/>
<ellipse cx="5.82495" cy="6.03253" rx="5.82495" ry="6.03253" transform="matrix(-1 0 0 1 54.4307 30.4395)" fill="#F2F4F7"/>
<ellipse cx="5.82495" cy="6.03253" rx="5.82495" ry="6.03253" transform="matrix(-1 0 0 1 37.8667 30.4395)" fill="#F2F4F7"/>
<ellipse cx="5.82495" cy="6.03253" rx="5.82495" ry="6.03253" transform="matrix(-1 0 0 1 21.3037 30.4395)" fill="#F2F4F7"/>
<ellipse cx="5.82495" cy="6.03253" rx="5.82495" ry="6.03253" transform="matrix(-1 0 0 1 4.74072 30.4395)" fill="#F2F4F7"/>
<ellipse cx="5.82495" cy="6.03253" rx="5.82495" ry="6.03253" transform="matrix(-1 0 0 1 410.728 46.459)" fill="#F2F4F7"/>
<ellipse cx="5.82495" cy="6.03253" rx="5.82495" ry="6.03253" transform="matrix(-1 0 0 1 394.164 46.459)" fill="#F2F4F7"/>
<ellipse cx="5.82495" cy="6.03253" rx="5.82495" ry="6.03253" transform="matrix(-1 0 0 1 377.602 46.459)" fill="#F2F4F7"/>
<ellipse cx="5.82495" cy="6.03253" rx="5.82495" ry="6.03253" transform="matrix(-1 0 0 1 361.037 46.459)" fill="#F2F4F7"/>
<ellipse cx="5.82495" cy="6.03253" rx="5.82495" ry="6.03253" transform="matrix(-1 0 0 1 344.475 46.459)" fill="#F2F4F7"/>
<ellipse cx="5.82495" cy="6.03253" rx="5.82495" ry="6.03253" transform="matrix(-1 0 0 1 327.911 46.459)" fill="#F2F4F7"/>
<ellipse cx="5.82495" cy="6.03253" rx="5.82495" ry="6.03253" transform="matrix(-1 0 0 1 311.348 46.459)" fill="#F2F4F7"/>
<ellipse cx="5.82495" cy="6.03253" rx="5.82495" ry="6.03253" transform="matrix(-1 0 0 1 294.786 46.459)" fill="#F2F4F7"/>
<ellipse cx="5.82495" cy="6.03253" rx="5.82495" ry="6.03253" transform="matrix(-1 0 0 1 278.221 46.459)" fill="#F2F4F7"/>
<ellipse cx="5.82495" cy="6.03253" rx="5.82495" ry="6.03253" transform="matrix(-1 0 0 1 261.659 46.459)" fill="#F2F4F7"/>
<ellipse cx="5.82495" cy="6.03253" rx="5.82495" ry="6.03253" transform="matrix(-1 0 0 1 245.095 46.459)" fill="#F2F4F7"/>
<ellipse cx="5.82495" cy="6.03253" rx="5.82495" ry="6.03253" transform="matrix(-1 0 0 1 228.533 46.459)" fill="#F2F4F7"/>
<ellipse cx="5.82495" cy="6.03253" rx="5.82495" ry="6.03253" transform="matrix(-1 0 0 1 211.968 46.459)" fill="#F2F4F7"/>
<ellipse cx="5.82495" cy="6.03253" rx="5.82495" ry="6.03253" transform="matrix(-1 0 0 1 195.405 46.459)" fill="#F2F4F7"/>
<ellipse cx="5.82495" cy="6.03253" rx="5.82495" ry="6.03253" transform="matrix(-1 0 0 1 178.841 46.459)" fill="#F2F4F7"/>
<ellipse cx="5.82495" cy="6.03253" rx="5.82495" ry="6.03253" transform="matrix(-1 0 0 1 162.278 46.459)" fill="#F2F4F7"/>
<ellipse cx="5.82495" cy="6.03253" rx="5.82495" ry="6.03253" transform="matrix(-1 0 0 1 145.716 46.459)" fill="#F2F4F7"/>
<ellipse cx="5.82495" cy="6.03253" rx="5.82495" ry="6.03253" transform="matrix(-1 0 0 1 129.152 46.459)" fill="#F2F4F7"/>
<ellipse cx="5.82495" cy="6.03253" rx="5.82495" ry="6.03253" transform="matrix(-1 0 0 1 112.587 46.459)" fill="#F2F4F7"/>
<ellipse cx="5.82495" cy="6.03253" rx="5.82495" ry="6.03253" transform="matrix(-1 0 0 1 96.0259 46.459)" fill="#F2F4F7"/>
<ellipse cx="5.82495" cy="6.03253" rx="5.82495" ry="6.03253" transform="matrix(-1 0 0 1 79.4619 46.459)" fill="#F2F4F7"/>
<ellipse cx="5.82495" cy="6.03253" rx="5.82495" ry="6.03253" transform="matrix(-1 0 0 1 62.8989 46.459)" fill="#F2F4F7"/>
<ellipse cx="5.82495" cy="6.03253" rx="5.82495" ry="6.03253" transform="matrix(-1 0 0 1 46.3354 46.459)" fill="#F2F4F7"/>
<ellipse cx="5.82495" cy="6.03253" rx="5.82495" ry="6.03253" transform="matrix(-1 0 0 1 29.7729 46.459)" fill="#F2F4F7"/>
<ellipse cx="5.82495" cy="6.03253" rx="5.82495" ry="6.03253" transform="matrix(-1 0 0 1 13.2085 46.459)" fill="#F2F4F7"/>
<ellipse cx="5.82495" cy="6.03253" rx="5.82495" ry="6.03253" transform="matrix(-1 0 0 1 402.26 62.1953)" fill="#F2F4F7"/>
<ellipse cx="5.82495" cy="6.03253" rx="5.82495" ry="6.03253" transform="matrix(-1 0 0 1 385.695 62.1953)" fill="#F2F4F7"/>
<ellipse cx="5.82495" cy="6.03253" rx="5.82495" ry="6.03253" transform="matrix(-1 0 0 1 369.134 62.1953)" fill="#F2F4F7"/>
<ellipse cx="5.82495" cy="6.03253" rx="5.82495" ry="6.03253" transform="matrix(-1 0 0 1 352.57 62.1953)" fill="#F2F4F7"/>
<ellipse cx="5.82495" cy="6.03253" rx="5.82495" ry="6.03253" transform="matrix(-1 0 0 1 336.007 62.1953)" fill="#F2F4F7"/>
<ellipse cx="5.82495" cy="6.03253" rx="5.82495" ry="6.03253" transform="matrix(-1 0 0 1 319.442 62.1953)" fill="#F2F4F7"/>
<ellipse cx="5.82495" cy="6.03253" rx="5.82495" ry="6.03253" transform="matrix(-1 0 0 1 302.881 62.1953)" fill="#F2F4F7"/>
<ellipse cx="5.82495" cy="6.03253" rx="5.82495" ry="6.03253" transform="matrix(-1 0 0 1 286.316 62.1953)" fill="#F2F4F7"/>
<ellipse cx="5.82495" cy="6.03253" rx="5.82495" ry="6.03253" transform="matrix(-1 0 0 1 269.754 62.1953)" fill="#F2F4F7"/>
<ellipse cx="5.82495" cy="6.03253" rx="5.82495" ry="6.03253" transform="matrix(-1 0 0 1 253.19 62.1953)" fill="#F2F4F7"/>
<ellipse cx="5.82495" cy="6.03253" rx="5.82495" ry="6.03253" transform="matrix(-1 0 0 1 236.626 62.1953)" fill="#F2F4F7"/>
<ellipse cx="5.82495" cy="6.03253" rx="5.82495" ry="6.03253" transform="matrix(-1 0 0 1 220.063 62.1953)" fill="#F2F4F7"/>
<ellipse cx="5.82495" cy="6.03253" rx="5.82495" ry="6.03253" transform="matrix(-1 0 0 1 203.499 62.1953)" fill="#F2F4F7"/>
<ellipse cx="5.82495" cy="6.03253" rx="5.82495" ry="6.03253" transform="matrix(-1 0 0 1 186.937 62.1953)" fill="#F2F4F7"/>
<ellipse cx="5.82495" cy="6.03253" rx="5.82495" ry="6.03253" transform="matrix(-1 0 0 1 170.374 62.1953)" fill="#F2F4F7"/>
<ellipse cx="5.82495" cy="6.03253" rx="5.82495" ry="6.03253" transform="matrix(-1 0 0 1 153.81 62.1953)" fill="#F2F4F7"/>
<ellipse cx="5.82495" cy="6.03253" rx="5.82495" ry="6.03253" transform="matrix(-1 0 0 1 137.247 62.1953)" fill="#F2F4F7"/>
<ellipse cx="5.82495" cy="6.03253" rx="5.82495" ry="6.03253" transform="matrix(-1 0 0 1 120.684 62.1953)" fill="#F2F4F7"/>
<ellipse cx="5.82495" cy="6.03253" rx="5.82495" ry="6.03253" transform="matrix(-1 0 0 1 104.12 62.1953)" fill="#F2F4F7"/>
<ellipse cx="5.82495" cy="6.03253" rx="5.82495" ry="6.03253" transform="matrix(-1 0 0 1 87.5562 62.1953)" fill="#F2F4F7"/>
<ellipse cx="5.82495" cy="6.03253" rx="5.82495" ry="6.03253" transform="matrix(-1 0 0 1 70.9951 62.1953)" fill="#F2F4F7"/>
<ellipse cx="5.82495" cy="6.03253" rx="5.82495" ry="6.03253" transform="matrix(-1 0 0 1 54.4307 62.1953)" fill="#F2F4F7"/>
<ellipse cx="5.82495" cy="6.03253" rx="5.82495" ry="6.03253" transform="matrix(-1 0 0 1 37.8667 62.1953)" fill="#F2F4F7"/>
<ellipse cx="5.82495" cy="6.03253" rx="5.82495" ry="6.03253" transform="matrix(-1 0 0 1 21.3037 62.1953)" fill="#F2F4F7"/>
<ellipse cx="5.82495" cy="6.03253" rx="5.82495" ry="6.03253" transform="matrix(-1 0 0 1 4.74072 62.1953)" fill="#F2F4F7"/>
<ellipse cx="5.82495" cy="6.03253" rx="5.82495" ry="6.03253" transform="matrix(-1 0 0 1 410.728 78.2158)" fill="#F2F4F7"/>
<ellipse cx="5.82495" cy="6.03253" rx="5.82495" ry="6.03253" transform="matrix(-1 0 0 1 394.164 78.2158)" fill="#F2F4F7"/>
<ellipse cx="5.82495" cy="6.03253" rx="5.82495" ry="6.03253" transform="matrix(-1 0 0 1 377.602 78.2158)" fill="#F2F4F7"/>
<ellipse cx="5.82495" cy="6.03253" rx="5.82495" ry="6.03253" transform="matrix(-1 0 0 1 361.037 78.2158)" fill="#F2F4F7"/>
<ellipse cx="5.82495" cy="6.03253" rx="5.82495" ry="6.03253" transform="matrix(-1 0 0 1 344.475 78.2158)" fill="#F2F4F7"/>
<ellipse cx="5.82495" cy="6.03253" rx="5.82495" ry="6.03253" transform="matrix(-1 0 0 1 327.911 78.2158)" fill="#F2F4F7"/>
<ellipse cx="5.82495" cy="6.03253" rx="5.82495" ry="6.03253" transform="matrix(-1 0 0 1 311.348 78.2158)" fill="#F2F4F7"/>
<ellipse cx="5.82495" cy="6.03253" rx="5.82495" ry="6.03253" transform="matrix(-1 0 0 1 294.786 78.2158)" fill="#F2F4F7"/>
<ellipse cx="5.82495" cy="6.03253" rx="5.82495" ry="6.03253" transform="matrix(-1 0 0 1 278.221 78.2158)" fill="#F2F4F7"/>
<ellipse cx="5.82495" cy="6.03253" rx="5.82495" ry="6.03253" transform="matrix(-1 0 0 1 261.659 78.2158)" fill="#F2F4F7"/>
<ellipse cx="5.82495" cy="6.03253" rx="5.82495" ry="6.03253" transform="matrix(-1 0 0 1 245.095 78.2158)" fill="#F2F4F7"/>
<ellipse cx="5.82495" cy="6.03253" rx="5.82495" ry="6.03253" transform="matrix(-1 0 0 1 228.533 78.2158)" fill="#F2F4F7"/>
<ellipse cx="5.82495" cy="6.03253" rx="5.82495" ry="6.03253" transform="matrix(-1 0 0 1 211.968 78.2158)" fill="#F2F4F7"/>
<ellipse cx="5.82495" cy="6.03253" rx="5.82495" ry="6.03253" transform="matrix(-1 0 0 1 195.405 78.2158)" fill="#F2F4F7"/>
<ellipse cx="5.82495" cy="6.03253" rx="5.82495" ry="6.03253" transform="matrix(-1 0 0 1 178.841 78.2158)" fill="#F2F4F7"/>
<ellipse cx="5.82495" cy="6.03253" rx="5.82495" ry="6.03253" transform="matrix(-1 0 0 1 162.278 78.2158)" fill="#F2F4F7"/>
<ellipse cx="5.82495" cy="6.03253" rx="5.82495" ry="6.03253" transform="matrix(-1 0 0 1 145.716 78.2158)" fill="#F2F4F7"/>
<ellipse cx="5.82495" cy="6.03253" rx="5.82495" ry="6.03253" transform="matrix(-1 0 0 1 129.152 78.2158)" fill="#F2F4F7"/>
<ellipse cx="5.82495" cy="6.03253" rx="5.82495" ry="6.03253" transform="matrix(-1 0 0 1 112.587 78.2158)" fill="#F2F4F7"/>
<ellipse cx="5.82495" cy="6.03253" rx="5.82495" ry="6.03253" transform="matrix(-1 0 0 1 96.0259 78.2158)" fill="#F2F4F7"/>
<ellipse cx="5.82495" cy="6.03253" rx="5.82495" ry="6.03253" transform="matrix(-1 0 0 1 79.4619 78.2158)" fill="#F2F4F7"/>
<ellipse cx="5.82495" cy="6.03253" rx="5.82495" ry="6.03253" transform="matrix(-1 0 0 1 62.8989 78.2158)" fill="#F2F4F7"/>
<ellipse cx="5.82495" cy="6.03253" rx="5.82495" ry="6.03253" transform="matrix(-1 0 0 1 46.3354 78.2158)" fill="#F2F4F7"/>
<ellipse cx="5.82495" cy="6.03253" rx="5.82495" ry="6.03253" transform="matrix(-1 0 0 1 29.7729 78.2158)" fill="#F2F4F7"/>
<ellipse cx="5.82495" cy="6.03253" rx="5.82495" ry="6.03253" transform="matrix(-1 0 0 1 13.2085 78.2158)" fill="#F2F4F7"/>
<ellipse cx="5.82495" cy="6.03253" rx="5.82495" ry="6.03253" transform="matrix(-1 0 0 1 402.26 93.9512)" fill="#F2F4F7"/>
<ellipse cx="5.82495" cy="6.03253" rx="5.82495" ry="6.03253" transform="matrix(-1 0 0 1 385.695 93.9512)" fill="#F2F4F7"/>
<ellipse cx="5.82495" cy="6.03253" rx="5.82495" ry="6.03253" transform="matrix(-1 0 0 1 369.134 93.9512)" fill="#F2F4F7"/>
<ellipse cx="5.82495" cy="6.03253" rx="5.82495" ry="6.03253" transform="matrix(-1 0 0 1 352.57 93.9512)" fill="#F2F4F7"/>
<ellipse cx="5.82495" cy="6.03253" rx="5.82495" ry="6.03253" transform="matrix(-1 0 0 1 336.007 93.9512)" fill="#F2F4F7"/>
<ellipse cx="5.82495" cy="6.03253" rx="5.82495" ry="6.03253" transform="matrix(-1 0 0 1 319.442 93.9512)" fill="#F2F4F7"/>
<ellipse cx="5.82495" cy="6.03253" rx="5.82495" ry="6.03253" transform="matrix(-1 0 0 1 302.881 93.9512)" fill="#F2F4F7"/>
<ellipse cx="5.82495" cy="6.03253" rx="5.82495" ry="6.03253" transform="matrix(-1 0 0 1 286.316 93.9512)" fill="#F2F4F7"/>
<ellipse cx="5.82495" cy="6.03253" rx="5.82495" ry="6.03253" transform="matrix(-1 0 0 1 269.754 93.9512)" fill="#F2F4F7"/>
<ellipse cx="5.82495" cy="6.03253" rx="5.82495" ry="6.03253" transform="matrix(-1 0 0 1 253.19 93.9512)" fill="#F2F4F7"/>
<ellipse cx="5.82495" cy="6.03253" rx="5.82495" ry="6.03253" transform="matrix(-1 0 0 1 236.626 93.9512)" fill="#F2F4F7"/>
<ellipse cx="5.82495" cy="6.03253" rx="5.82495" ry="6.03253" transform="matrix(-1 0 0 1 220.063 93.9512)" fill="#F2F4F7"/>
<ellipse cx="5.82495" cy="6.03253" rx="5.82495" ry="6.03253" transform="matrix(-1 0 0 1 203.499 93.9512)" fill="#F2F4F7"/>
<ellipse cx="5.82495" cy="6.03253" rx="5.82495" ry="6.03253" transform="matrix(-1 0 0 1 186.937 93.9512)" fill="#F2F4F7"/>
<ellipse cx="5.82495" cy="6.03253" rx="5.82495" ry="6.03253" transform="matrix(-1 0 0 1 170.374 93.9512)" fill="#F2F4F7"/>
<ellipse cx="5.82495" cy="6.03253" rx="5.82495" ry="6.03253" transform="matrix(-1 0 0 1 153.81 93.9512)" fill="#F2F4F7"/>
<ellipse cx="5.82495" cy="6.03253" rx="5.82495" ry="6.03253" transform="matrix(-1 0 0 1 137.247 93.9512)" fill="#F2F4F7"/>
<ellipse cx="5.82495" cy="6.03253" rx="5.82495" ry="6.03253" transform="matrix(-1 0 0 1 120.684 93.9512)" fill="#F2F4F7"/>
<ellipse cx="5.82495" cy="6.03253" rx="5.82495" ry="6.03253" transform="matrix(-1 0 0 1 104.12 93.9512)" fill="#F2F4F7"/>
<ellipse cx="5.82495" cy="6.03253" rx="5.82495" ry="6.03253" transform="matrix(-1 0 0 1 87.5562 93.9512)" fill="#F2F4F7"/>
<ellipse cx="5.82495" cy="6.03253" rx="5.82495" ry="6.03253" transform="matrix(-1 0 0 1 70.9951 93.9512)" fill="#F2F4F7"/>
<ellipse cx="5.82495" cy="6.03253" rx="5.82495" ry="6.03253" transform="matrix(-1 0 0 1 54.4307 93.9512)" fill="#F2F4F7"/>
<ellipse cx="5.82495" cy="6.03253" rx="5.82495" ry="6.03253" transform="matrix(-1 0 0 1 37.8667 93.9512)" fill="#F2F4F7"/>
<ellipse cx="5.82495" cy="6.03253" rx="5.82495" ry="6.03253" transform="matrix(-1 0 0 1 21.3037 93.9512)" fill="#F2F4F7"/>
<ellipse cx="5.82495" cy="6.03253" rx="5.82495" ry="6.03253" transform="matrix(-1 0 0 1 4.74072 93.9512)" fill="#F2F4F7"/>
<ellipse cx="5.82495" cy="6.03253" rx="5.82495" ry="6.03253" transform="matrix(-1 0 0 1 410.728 109.972)" fill="#F2F4F7"/>
<ellipse cx="5.82495" cy="6.03253" rx="5.82495" ry="6.03253" transform="matrix(-1 0 0 1 394.164 109.972)" fill="#F2F4F7"/>
<ellipse cx="5.82495" cy="6.03253" rx="5.82495" ry="6.03253" transform="matrix(-1 0 0 1 377.602 109.972)" fill="#F2F4F7"/>
<ellipse cx="5.82495" cy="6.03253" rx="5.82495" ry="6.03253" transform="matrix(-1 0 0 1 361.037 109.972)" fill="#F2F4F7"/>
<ellipse cx="5.82495" cy="6.03253" rx="5.82495" ry="6.03253" transform="matrix(-1 0 0 1 344.475 109.972)" fill="#F2F4F7"/>
<ellipse cx="5.82495" cy="6.03253" rx="5.82495" ry="6.03253" transform="matrix(-1 0 0 1 327.911 109.972)" fill="#F2F4F7"/>
<ellipse cx="5.82495" cy="6.03253" rx="5.82495" ry="6.03253" transform="matrix(-1 0 0 1 311.348 109.972)" fill="#F2F4F7"/>
<ellipse cx="5.82495" cy="6.03253" rx="5.82495" ry="6.03253" transform="matrix(-1 0 0 1 294.786 109.972)" fill="#F2F4F7"/>
<ellipse cx="5.82495" cy="6.03253" rx="5.82495" ry="6.03253" transform="matrix(-1 0 0 1 278.221 109.972)" fill="#F2F4F7"/>
<ellipse cx="5.82495" cy="6.03253" rx="5.82495" ry="6.03253" transform="matrix(-1 0 0 1 261.659 109.972)" fill="#F2F4F7"/>
<ellipse cx="5.82495" cy="6.03253" rx="5.82495" ry="6.03253" transform="matrix(-1 0 0 1 245.095 109.972)" fill="#F2F4F7"/>
<ellipse cx="5.82495" cy="6.03253" rx="5.82495" ry="6.03253" transform="matrix(-1 0 0 1 228.533 109.972)" fill="#F2F4F7"/>
<ellipse cx="5.82495" cy="6.03253" rx="5.82495" ry="6.03253" transform="matrix(-1 0 0 1 211.968 109.972)" fill="#F2F4F7"/>
<ellipse cx="5.82495" cy="6.03253" rx="5.82495" ry="6.03253" transform="matrix(-1 0 0 1 195.405 109.972)" fill="#F2F4F7"/>
<ellipse cx="5.82495" cy="6.03253" rx="5.82495" ry="6.03253" transform="matrix(-1 0 0 1 178.841 109.972)" fill="#F2F4F7"/>
<ellipse cx="5.82495" cy="6.03253" rx="5.82495" ry="6.03253" transform="matrix(-1 0 0 1 162.278 109.972)" fill="#F2F4F7"/>
<ellipse cx="5.82495" cy="6.03253" rx="5.82495" ry="6.03253" transform="matrix(-1 0 0 1 145.716 109.972)" fill="#F2F4F7"/>
<ellipse cx="5.82495" cy="6.03253" rx="5.82495" ry="6.03253" transform="matrix(-1 0 0 1 129.152 109.972)" fill="#F2F4F7"/>
<ellipse cx="5.82495" cy="6.03253" rx="5.82495" ry="6.03253" transform="matrix(-1 0 0 1 112.587 109.972)" fill="#F2F4F7"/>
<ellipse cx="5.82495" cy="6.03253" rx="5.82495" ry="6.03253" transform="matrix(-1 0 0 1 96.0259 109.972)" fill="#F2F4F7"/>
<ellipse cx="5.82495" cy="6.03253" rx="5.82495" ry="6.03253" transform="matrix(-1 0 0 1 79.4619 109.972)" fill="#F2F4F7"/>
<ellipse cx="5.82495" cy="6.03253" rx="5.82495" ry="6.03253" transform="matrix(-1 0 0 1 62.8989 109.972)" fill="#F2F4F7"/>
<ellipse cx="5.82495" cy="6.03253" rx="5.82495" ry="6.03253" transform="matrix(-1 0 0 1 46.3354 109.972)" fill="#F2F4F7"/>
<ellipse cx="5.82495" cy="6.03253" rx="5.82495" ry="6.03253" transform="matrix(-1 0 0 1 29.7729 109.972)" fill="#F2F4F7"/>
<ellipse cx="5.82495" cy="6.03253" rx="5.82495" ry="6.03253" transform="matrix(-1 0 0 1 13.2085 109.972)" fill="#F2F4F7"/>
<ellipse cx="5.82495" cy="6.03253" rx="5.82495" ry="6.03253" transform="matrix(-1 0 0 1 402.26 125.707)" fill="#F2F4F7"/>
<ellipse cx="5.82495" cy="6.03253" rx="5.82495" ry="6.03253" transform="matrix(-1 0 0 1 385.695 125.707)" fill="#F2F4F7"/>
<ellipse cx="5.82495" cy="6.03253" rx="5.82495" ry="6.03253" transform="matrix(-1 0 0 1 369.134 125.707)" fill="#F2F4F7"/>
<ellipse cx="5.82495" cy="6.03253" rx="5.82495" ry="6.03253" transform="matrix(-1 0 0 1 352.57 125.707)" fill="#F2F4F7"/>
<ellipse cx="5.82495" cy="6.03253" rx="5.82495" ry="6.03253" transform="matrix(-1 0 0 1 336.007 125.707)" fill="#F2F4F7"/>
<ellipse cx="5.82495" cy="6.03253" rx="5.82495" ry="6.03253" transform="matrix(-1 0 0 1 319.442 125.707)" fill="#F2F4F7"/>
<ellipse cx="5.82495" cy="6.03253" rx="5.82495" ry="6.03253" transform="matrix(-1 0 0 1 302.881 125.707)" fill="#F2F4F7"/>
<ellipse cx="5.82495" cy="6.03253" rx="5.82495" ry="6.03253" transform="matrix(-1 0 0 1 286.316 125.707)" fill="#F2F4F7"/>
<ellipse cx="5.82495" cy="6.03253" rx="5.82495" ry="6.03253" transform="matrix(-1 0 0 1 269.754 125.707)" fill="#F2F4F7"/>
<ellipse cx="5.82495" cy="6.03253" rx="5.82495" ry="6.03253" transform="matrix(-1 0 0 1 253.19 125.707)" fill="#F2F4F7"/>
<ellipse cx="5.82495" cy="6.03253" rx="5.82495" ry="6.03253" transform="matrix(-1 0 0 1 236.626 125.707)" fill="#F2F4F7"/>
<ellipse cx="5.82495" cy="6.03253" rx="5.82495" ry="6.03253" transform="matrix(-1 0 0 1 220.063 125.707)" fill="#F2F4F7"/>
<ellipse cx="5.82495" cy="6.03253" rx="5.82495" ry="6.03253" transform="matrix(-1 0 0 1 203.499 125.707)" fill="#F2F4F7"/>
<ellipse cx="5.82495" cy="6.03253" rx="5.82495" ry="6.03253" transform="matrix(-1 0 0 1 186.937 125.707)" fill="#F2F4F7"/>
<ellipse cx="5.82495" cy="6.03253" rx="5.82495" ry="6.03253" transform="matrix(-1 0 0 1 170.374 125.707)" fill="#F2F4F7"/>
<ellipse cx="5.82495" cy="6.03253" rx="5.82495" ry="6.03253" transform="matrix(-1 0 0 1 153.81 125.707)" fill="#F2F4F7"/>
<ellipse cx="5.82495" cy="6.03253" rx="5.82495" ry="6.03253" transform="matrix(-1 0 0 1 137.247 125.707)" fill="#F2F4F7"/>
<ellipse cx="5.82495" cy="6.03253" rx="5.82495" ry="6.03253" transform="matrix(-1 0 0 1 120.684 125.707)" fill="#F2F4F7"/>
<ellipse cx="5.82495" cy="6.03253" rx="5.82495" ry="6.03253" transform="matrix(-1 0 0 1 104.12 125.707)" fill="#F2F4F7"/>
<ellipse cx="5.82495" cy="6.03253" rx="5.82495" ry="6.03253" transform="matrix(-1 0 0 1 87.5562 125.707)" fill="#F2F4F7"/>
<ellipse cx="5.82495" cy="6.03253" rx="5.82495" ry="6.03253" transform="matrix(-1 0 0 1 70.9951 125.707)" fill="#F2F4F7"/>
<ellipse cx="5.82495" cy="6.03253" rx="5.82495" ry="6.03253" transform="matrix(-1 0 0 1 54.4307 125.707)" fill="#F2F4F7"/>
<ellipse cx="5.82495" cy="6.03253" rx="5.82495" ry="6.03253" transform="matrix(-1 0 0 1 37.8667 125.707)" fill="#F2F4F7"/>
<ellipse cx="5.82495" cy="6.03253" rx="5.82495" ry="6.03253" transform="matrix(-1 0 0 1 21.3037 125.707)" fill="#F2F4F7"/>
<ellipse cx="5.82495" cy="6.03253" rx="5.82495" ry="6.03253" transform="matrix(-1 0 0 1 4.74072 125.707)" fill="#F2F4F7"/>
<ellipse cx="5.82495" cy="6.03253" rx="5.82495" ry="6.03253" transform="matrix(-1 0 0 1 410.728 141.728)" fill="#F2F4F7"/>
<ellipse cx="5.82495" cy="6.03253" rx="5.82495" ry="6.03253" transform="matrix(-1 0 0 1 394.164 141.728)" fill="#F2F4F7"/>
<ellipse cx="5.82495" cy="6.03253" rx="5.82495" ry="6.03253" transform="matrix(-1 0 0 1 377.602 141.728)" fill="#F2F4F7"/>
<ellipse cx="5.82495" cy="6.03253" rx="5.82495" ry="6.03253" transform="matrix(-1 0 0 1 361.037 141.728)" fill="#F2F4F7"/>
<ellipse cx="5.82495" cy="6.03253" rx="5.82495" ry="6.03253" transform="matrix(-1 0 0 1 344.475 141.728)" fill="#F2F4F7"/>
<ellipse cx="5.82495" cy="6.03253" rx="5.82495" ry="6.03253" transform="matrix(-1 0 0 1 327.911 141.728)" fill="#F2F4F7"/>
<ellipse cx="5.82495" cy="6.03253" rx="5.82495" ry="6.03253" transform="matrix(-1 0 0 1 311.348 141.728)" fill="#F2F4F7"/>
<ellipse cx="5.82495" cy="6.03253" rx="5.82495" ry="6.03253" transform="matrix(-1 0 0 1 294.786 141.728)" fill="#F2F4F7"/>
<ellipse cx="5.82495" cy="6.03253" rx="5.82495" ry="6.03253" transform="matrix(-1 0 0 1 278.221 141.728)" fill="#F2F4F7"/>
<ellipse cx="5.82495" cy="6.03253" rx="5.82495" ry="6.03253" transform="matrix(-1 0 0 1 261.659 141.728)" fill="#F2F4F7"/>
<ellipse cx="5.82495" cy="6.03253" rx="5.82495" ry="6.03253" transform="matrix(-1 0 0 1 245.095 141.728)" fill="#F2F4F7"/>
<ellipse cx="5.82495" cy="6.03253" rx="5.82495" ry="6.03253" transform="matrix(-1 0 0 1 228.533 141.728)" fill="#F2F4F7"/>
<ellipse cx="5.82495" cy="6.03253" rx="5.82495" ry="6.03253" transform="matrix(-1 0 0 1 211.968 141.728)" fill="#F2F4F7"/>
<ellipse cx="5.82495" cy="6.03253" rx="5.82495" ry="6.03253" transform="matrix(-1 0 0 1 195.405 141.728)" fill="#F2F4F7"/>
<ellipse cx="5.82495" cy="6.03253" rx="5.82495" ry="6.03253" transform="matrix(-1 0 0 1 178.841 141.728)" fill="#F2F4F7"/>
<ellipse cx="5.82495" cy="6.03253" rx="5.82495" ry="6.03253" transform="matrix(-1 0 0 1 162.278 141.728)" fill="#F2F4F7"/>
<ellipse cx="5.82495" cy="6.03253" rx="5.82495" ry="6.03253" transform="matrix(-1 0 0 1 145.716 141.728)" fill="#F2F4F7"/>
<ellipse cx="5.82495" cy="6.03253" rx="5.82495" ry="6.03253" transform="matrix(-1 0 0 1 129.152 141.728)" fill="#F2F4F7"/>
<ellipse cx="5.82495" cy="6.03253" rx="5.82495" ry="6.03253" transform="matrix(-1 0 0 1 112.587 141.728)" fill="#F2F4F7"/>
<ellipse cx="5.82495" cy="6.03253" rx="5.82495" ry="6.03253" transform="matrix(-1 0 0 1 96.0259 141.728)" fill="#F2F4F7"/>
<ellipse cx="5.82495" cy="6.03253" rx="5.82495" ry="6.03253" transform="matrix(-1 0 0 1 79.4619 141.728)" fill="#F2F4F7"/>
<ellipse cx="5.82495" cy="6.03253" rx="5.82495" ry="6.03253" transform="matrix(-1 0 0 1 62.8989 141.728)" fill="#F2F4F7"/>
<ellipse cx="5.82495" cy="6.03253" rx="5.82495" ry="6.03253" transform="matrix(-1 0 0 1 46.3354 141.728)" fill="#F2F4F7"/>
<ellipse cx="5.82495" cy="6.03253" rx="5.82495" ry="6.03253" transform="matrix(-1 0 0 1 29.7729 141.728)" fill="#F2F4F7"/>
<ellipse cx="5.82495" cy="6.03253" rx="5.82495" ry="6.03253" transform="matrix(-1 0 0 1 13.2085 141.728)" fill="#F2F4F7"/>
<ellipse cx="5.82495" cy="6.03253" rx="5.82495" ry="6.03253" transform="matrix(-1 0 0 1 402.26 157.463)" fill="#F2F4F7"/>
<ellipse cx="5.82495" cy="6.03253" rx="5.82495" ry="6.03253" transform="matrix(-1 0 0 1 385.695 157.463)" fill="#F2F4F7"/>
<ellipse cx="5.82495" cy="6.03253" rx="5.82495" ry="6.03253" transform="matrix(-1 0 0 1 369.134 157.463)" fill="#F2F4F7"/>
<ellipse cx="5.82495" cy="6.03253" rx="5.82495" ry="6.03253" transform="matrix(-1 0 0 1 352.57 157.463)" fill="#F2F4F7"/>
<ellipse cx="5.82495" cy="6.03253" rx="5.82495" ry="6.03253" transform="matrix(-1 0 0 1 336.007 157.463)" fill="#F2F4F7"/>
<ellipse cx="5.82495" cy="6.03253" rx="5.82495" ry="6.03253" transform="matrix(-1 0 0 1 319.442 157.463)" fill="#F2F4F7"/>
<ellipse cx="5.82495" cy="6.03253" rx="5.82495" ry="6.03253" transform="matrix(-1 0 0 1 302.881 157.463)" fill="#F2F4F7"/>
<ellipse cx="5.82495" cy="6.03253" rx="5.82495" ry="6.03253" transform="matrix(-1 0 0 1 286.316 157.463)" fill="#F2F4F7"/>
<ellipse cx="5.82495" cy="6.03253" rx="5.82495" ry="6.03253" transform="matrix(-1 0 0 1 269.754 157.463)" fill="#F2F4F7"/>
<ellipse cx="5.82495" cy="6.03253" rx="5.82495" ry="6.03253" transform="matrix(-1 0 0 1 253.19 157.463)" fill="#F2F4F7"/>
<ellipse cx="5.82495" cy="6.03253" rx="5.82495" ry="6.03253" transform="matrix(-1 0 0 1 236.626 157.463)" fill="#F2F4F7"/>
<ellipse cx="5.82495" cy="6.03253" rx="5.82495" ry="6.03253" transform="matrix(-1 0 0 1 220.063 157.463)" fill="#F2F4F7"/>
<ellipse cx="5.82495" cy="6.03253" rx="5.82495" ry="6.03253" transform="matrix(-1 0 0 1 203.499 157.463)" fill="#F2F4F7"/>
<ellipse cx="5.82495" cy="6.03253" rx="5.82495" ry="6.03253" transform="matrix(-1 0 0 1 186.937 157.463)" fill="#F2F4F7"/>
<ellipse cx="5.82495" cy="6.03253" rx="5.82495" ry="6.03253" transform="matrix(-1 0 0 1 170.374 157.463)" fill="#F2F4F7"/>
<ellipse cx="5.82495" cy="6.03253" rx="5.82495" ry="6.03253" transform="matrix(-1 0 0 1 153.81 157.463)" fill="#F2F4F7"/>
<ellipse cx="5.82495" cy="6.03253" rx="5.82495" ry="6.03253" transform="matrix(-1 0 0 1 137.247 157.463)" fill="#F2F4F7"/>
<ellipse cx="5.82495" cy="6.03253" rx="5.82495" ry="6.03253" transform="matrix(-1 0 0 1 120.684 157.463)" fill="#F2F4F7"/>
<ellipse cx="5.82495" cy="6.03253" rx="5.82495" ry="6.03253" transform="matrix(-1 0 0 1 104.12 157.463)" fill="#F2F4F7"/>
<ellipse cx="5.82495" cy="6.03253" rx="5.82495" ry="6.03253" transform="matrix(-1 0 0 1 87.5562 157.463)" fill="#F2F4F7"/>
<ellipse cx="5.82495" cy="6.03253" rx="5.82495" ry="6.03253" transform="matrix(-1 0 0 1 70.9951 157.463)" fill="#F2F4F7"/>
<ellipse cx="5.82495" cy="6.03253" rx="5.82495" ry="6.03253" transform="matrix(-1 0 0 1 54.4307 157.463)" fill="#F2F4F7"/>
<ellipse cx="5.82495" cy="6.03253" rx="5.82495" ry="6.03253" transform="matrix(-1 0 0 1 37.8667 157.463)" fill="#F2F4F7"/>
<ellipse cx="5.82495" cy="6.03253" rx="5.82495" ry="6.03253" transform="matrix(-1 0 0 1 21.3037 157.463)" fill="#F2F4F7"/>
<ellipse cx="5.82495" cy="6.03253" rx="5.82495" ry="6.03253" transform="matrix(-1 0 0 1 4.74072 157.463)" fill="#F2F4F7"/>
<ellipse cx="5.82495" cy="6.03253" rx="5.82495" ry="6.03253" transform="matrix(-1 0 0 1 410.728 173.484)" fill="#F2F4F7"/>
<ellipse cx="5.82495" cy="6.03253" rx="5.82495" ry="6.03253" transform="matrix(-1 0 0 1 394.164 173.484)" fill="#F2F4F7"/>
<ellipse cx="5.82495" cy="6.03253" rx="5.82495" ry="6.03253" transform="matrix(-1 0 0 1 377.602 173.484)" fill="#F2F4F7"/>
<ellipse cx="5.82495" cy="6.03253" rx="5.82495" ry="6.03253" transform="matrix(-1 0 0 1 361.037 173.484)" fill="#F2F4F7"/>
<ellipse cx="5.82495" cy="6.03253" rx="5.82495" ry="6.03253" transform="matrix(-1 0 0 1 344.475 173.484)" fill="#F2F4F7"/>
<ellipse cx="5.82495" cy="6.03253" rx="5.82495" ry="6.03253" transform="matrix(-1 0 0 1 327.911 173.484)" fill="#F2F4F7"/>
<ellipse cx="5.82495" cy="6.03253" rx="5.82495" ry="6.03253" transform="matrix(-1 0 0 1 311.348 173.484)" fill="#F2F4F7"/>
<ellipse cx="5.82495" cy="6.03253" rx="5.82495" ry="6.03253" transform="matrix(-1 0 0 1 294.786 173.484)" fill="#F2F4F7"/>
<ellipse cx="5.82495" cy="6.03253" rx="5.82495" ry="6.03253" transform="matrix(-1 0 0 1 278.221 173.484)" fill="#F2F4F7"/>
<ellipse cx="5.82495" cy="6.03253" rx="5.82495" ry="6.03253" transform="matrix(-1 0 0 1 261.659 173.484)" fill="#F2F4F7"/>
<ellipse cx="5.82495" cy="6.03253" rx="5.82495" ry="6.03253" transform="matrix(-1 0 0 1 245.095 173.484)" fill="#F2F4F7"/>
<ellipse cx="5.82495" cy="6.03253" rx="5.82495" ry="6.03253" transform="matrix(-1 0 0 1 228.533 173.484)" fill="#F2F4F7"/>
<ellipse cx="5.82495" cy="6.03253" rx="5.82495" ry="6.03253" transform="matrix(-1 0 0 1 211.968 173.484)" fill="#F2F4F7"/>
<ellipse cx="5.82495" cy="6.03253" rx="5.82495" ry="6.03253" transform="matrix(-1 0 0 1 195.405 173.484)" fill="#F2F4F7"/>
<ellipse cx="5.82495" cy="6.03253" rx="5.82495" ry="6.03253" transform="matrix(-1 0 0 1 178.841 173.484)" fill="#F2F4F7"/>
<ellipse cx="5.82495" cy="6.03253" rx="5.82495" ry="6.03253" transform="matrix(-1 0 0 1 162.278 173.484)" fill="#F2F4F7"/>
<ellipse cx="5.82495" cy="6.03253" rx="5.82495" ry="6.03253" transform="matrix(-1 0 0 1 145.716 173.484)" fill="#F2F4F7"/>
<ellipse cx="5.82495" cy="6.03253" rx="5.82495" ry="6.03253" transform="matrix(-1 0 0 1 129.152 173.484)" fill="#F2F4F7"/>
<ellipse cx="5.82495" cy="6.03253" rx="5.82495" ry="6.03253" transform="matrix(-1 0 0 1 112.587 173.484)" fill="#F2F4F7"/>
<ellipse cx="5.82495" cy="6.03253" rx="5.82495" ry="6.03253" transform="matrix(-1 0 0 1 96.0259 173.484)" fill="#F2F4F7"/>
<ellipse cx="5.82495" cy="6.03253" rx="5.82495" ry="6.03253" transform="matrix(-1 0 0 1 79.4619 173.484)" fill="#F2F4F7"/>
<ellipse cx="5.82495" cy="6.03253" rx="5.82495" ry="6.03253" transform="matrix(-1 0 0 1 62.8989 173.484)" fill="#F2F4F7"/>
<ellipse cx="5.82495" cy="6.03253" rx="5.82495" ry="6.03253" transform="matrix(-1 0 0 1 46.3354 173.484)" fill="#F2F4F7"/>
<ellipse cx="5.82495" cy="6.03253" rx="5.82495" ry="6.03253" transform="matrix(-1 0 0 1 29.7729 173.484)" fill="#F2F4F7"/>
<ellipse cx="5.82495" cy="6.03253" rx="5.82495" ry="6.03253" transform="matrix(-1 0 0 1 13.2085 173.484)" fill="#F2F4F7"/>
</g>
</svg>
