<svg width="403" height="363" viewBox="0 0 403 363" fill="none" xmlns="http://www.w3.org/2000/svg">
<path d="M214.874 16.6347C214.874 23.9119 208.929 29.8432 201.556 29.8432C194.183 29.8432 188.238 23.9119 188.238 16.6347C188.238 9.35755 194.183 3.42622 201.556 3.42622C208.929 3.42622 214.874 9.35755 214.874 16.6347Z" stroke="url(#paint0_linear_40_37667)" stroke-width="5.4794"/>
<ellipse cx="68.6219" cy="312.358" rx="19.8094" ry="19.8094" fill="#F2F4F7"/>
<mask id="mask0_40_37667" style="mask-type:alpha" maskUnits="userSpaceOnUse" x="0" y="8" width="403" height="355">
<path fill-rule="evenodd" clip-rule="evenodd" d="M18.2052 18.627C-3.52819 34.7392 -6.17895 63.8314 12.2846 83.6061L256.923 345.618C275.387 365.393 307.973 368.362 329.706 352.25C351.439 336.138 354.09 307.045 335.626 287.271L90.988 25.2586C72.5245 5.48389 39.9385 2.51483 18.2052 18.627ZM218.861 48.1027C197.128 64.2149 194.477 93.307 212.941 113.082L311.289 218.414C329.752 238.189 362.338 241.158 384.071 225.046C405.805 208.933 408.456 179.841 389.992 160.066L291.644 54.7343C273.181 34.9596 240.595 31.9905 218.861 48.1027Z" fill="#D9D9D9"/>
</mask>
<g mask="url(#mask0_40_37667)">
<ellipse cx="6.40886" cy="10.3409" rx="7.16472" ry="6.91216" fill="#F2F4F7"/>
<ellipse cx="26.7819" cy="10.3409" rx="7.16472" ry="6.91216" fill="#F2F4F7"/>
<ellipse cx="47.155" cy="10.3409" rx="7.16472" ry="6.91216" fill="#F2F4F7"/>
<ellipse cx="67.526" cy="10.3409" rx="7.16472" ry="6.91216" fill="#F2F4F7"/>
<ellipse cx="87.8991" cy="10.3409" rx="7.16472" ry="6.91216" fill="#F2F4F7"/>
<ellipse cx="108.274" cy="10.3409" rx="7.16472" ry="6.91216" fill="#F2F4F7"/>
<ellipse cx="128.647" cy="10.3409" rx="7.16472" ry="6.91216" fill="#F2F4F7"/>
<ellipse cx="149.018" cy="10.3409" rx="7.16472" ry="6.91216" fill="#F2F4F7"/>
<ellipse cx="169.391" cy="10.3409" rx="7.16472" ry="6.91216" fill="#F2F4F7"/>
<ellipse cx="189.764" cy="10.3409" rx="7.16472" ry="6.91216" fill="#F2F4F7"/>
<ellipse cx="210.137" cy="10.3409" rx="7.16472" ry="6.91216" fill="#F2F4F7"/>
<ellipse cx="230.51" cy="10.3409" rx="7.16472" ry="6.91216" fill="#F2F4F7"/>
<ellipse cx="250.883" cy="10.3409" rx="7.16472" ry="6.91216" fill="#F2F4F7"/>
<ellipse cx="271.258" cy="10.3409" rx="7.16472" ry="6.91216" fill="#F2F4F7"/>
<ellipse cx="291.63" cy="10.3409" rx="7.16472" ry="6.91216" fill="#F2F4F7"/>
<ellipse cx="312.003" cy="10.3409" rx="7.16472" ry="6.91216" fill="#F2F4F7"/>
<ellipse cx="332.376" cy="10.3409" rx="7.16472" ry="6.91216" fill="#F2F4F7"/>
<ellipse cx="352.749" cy="10.3409" rx="7.16472" ry="6.91216" fill="#F2F4F7"/>
<ellipse cx="373.122" cy="10.3409" rx="7.16472" ry="6.91216" fill="#F2F4F7"/>
<ellipse cx="393.495" cy="10.3409" rx="7.16472" ry="6.91216" fill="#F2F4F7"/>
<ellipse cx="-4.00715" cy="28.6973" rx="7.16472" ry="6.91216" fill="#F2F4F7"/>
<ellipse cx="16.3639" cy="28.6973" rx="7.16472" ry="6.91216" fill="#F2F4F7"/>
<ellipse cx="36.7389" cy="28.6973" rx="7.16472" ry="6.91216" fill="#F2F4F7"/>
<ellipse cx="57.112" cy="28.6973" rx="7.16472" ry="6.91216" fill="#F2F4F7"/>
<ellipse cx="77.4831" cy="28.6973" rx="7.16472" ry="6.91216" fill="#F2F4F7"/>
<ellipse cx="97.8561" cy="28.6973" rx="7.16472" ry="6.91216" fill="#F2F4F7"/>
<ellipse cx="118.229" cy="28.6973" rx="7.16472" ry="6.91216" fill="#F2F4F7"/>
<ellipse cx="138.602" cy="28.6973" rx="7.16472" ry="6.91216" fill="#F2F4F7"/>
<ellipse cx="158.975" cy="28.6973" rx="7.16472" ry="6.91216" fill="#F2F4F7"/>
<ellipse cx="179.348" cy="28.6973" rx="7.16472" ry="6.91216" fill="#F2F4F7"/>
<ellipse cx="199.721" cy="28.6973" rx="7.16472" ry="6.91216" fill="#F2F4F7"/>
<ellipse cx="220.094" cy="28.6973" rx="7.16472" ry="6.91216" fill="#F2F4F7"/>
<ellipse cx="240.467" cy="28.6973" rx="7.16472" ry="6.91216" fill="#F2F4F7"/>
<ellipse cx="260.841" cy="28.6973" rx="7.16472" ry="6.91216" fill="#F2F4F7"/>
<ellipse cx="281.214" cy="28.6973" rx="7.16472" ry="6.91216" fill="#F2F4F7"/>
<ellipse cx="301.587" cy="28.6973" rx="7.16472" ry="6.91216" fill="#F2F4F7"/>
<ellipse cx="321.96" cy="28.6973" rx="7.16472" ry="6.91216" fill="#F2F4F7"/>
<ellipse cx="342.333" cy="28.6973" rx="7.16472" ry="6.91216" fill="#F2F4F7"/>
<ellipse cx="362.704" cy="28.6973" rx="7.16472" ry="6.91216" fill="#F2F4F7"/>
<ellipse cx="383.079" cy="28.6973" rx="7.16472" ry="6.91216" fill="#F2F4F7"/>
<ellipse cx="403.452" cy="28.6973" rx="7.16472" ry="6.91216" fill="#F2F4F7"/>
<ellipse cx="6.40886" cy="46.7286" rx="7.16472" ry="6.91216" fill="#F2F4F7"/>
<ellipse cx="26.7819" cy="46.7286" rx="7.16472" ry="6.91216" fill="#F2F4F7"/>
<ellipse cx="47.155" cy="46.7286" rx="7.16472" ry="6.91216" fill="#F2F4F7"/>
<ellipse cx="67.526" cy="46.7286" rx="7.16472" ry="6.91216" fill="#F2F4F7"/>
<ellipse cx="87.8991" cy="46.7286" rx="7.16472" ry="6.91216" fill="#F2F4F7"/>
<ellipse cx="108.274" cy="46.7286" rx="7.16472" ry="6.91216" fill="#F2F4F7"/>
<ellipse cx="128.647" cy="46.7286" rx="7.16472" ry="6.91216" fill="#F2F4F7"/>
<ellipse cx="149.018" cy="46.7286" rx="7.16472" ry="6.91216" fill="#F2F4F7"/>
<ellipse cx="169.391" cy="46.7286" rx="7.16472" ry="6.91216" fill="#F2F4F7"/>
<ellipse cx="189.764" cy="46.7286" rx="7.16472" ry="6.91216" fill="#F2F4F7"/>
<ellipse cx="210.137" cy="46.7286" rx="7.16472" ry="6.91216" fill="#F2F4F7"/>
<ellipse cx="230.51" cy="46.7286" rx="7.16472" ry="6.91216" fill="#F2F4F7"/>
<ellipse cx="250.883" cy="46.7286" rx="7.16472" ry="6.91216" fill="#F2F4F7"/>
<ellipse cx="271.257" cy="46.7286" rx="7.16472" ry="6.91216" fill="#F2F4F7"/>
<ellipse cx="291.63" cy="46.7286" rx="7.16472" ry="6.91216" fill="#F2F4F7"/>
<ellipse cx="312.003" cy="46.7286" rx="7.16472" ry="6.91216" fill="#F2F4F7"/>
<ellipse cx="332.376" cy="46.7286" rx="7.16472" ry="6.91216" fill="#F2F4F7"/>
<ellipse cx="352.747" cy="46.7286" rx="7.16472" ry="6.91216" fill="#F2F4F7"/>
<ellipse cx="373.122" cy="46.7286" rx="7.16472" ry="6.91216" fill="#F2F4F7"/>
<ellipse cx="393.495" cy="46.7286" rx="7.16472" ry="6.91216" fill="#F2F4F7"/>
<ellipse cx="-4.00715" cy="65.085" rx="7.16472" ry="6.91216" fill="#F2F4F7"/>
<ellipse cx="16.3639" cy="65.085" rx="7.16472" ry="6.91216" fill="#F2F4F7"/>
<ellipse cx="36.7389" cy="65.085" rx="7.16472" ry="6.91216" fill="#F2F4F7"/>
<ellipse cx="57.11" cy="65.085" rx="7.16472" ry="6.91216" fill="#F2F4F7"/>
<ellipse cx="77.4831" cy="65.085" rx="7.16472" ry="6.91216" fill="#F2F4F7"/>
<ellipse cx="97.8561" cy="65.085" rx="7.16472" ry="6.91216" fill="#F2F4F7"/>
<ellipse cx="118.229" cy="65.085" rx="7.16472" ry="6.91216" fill="#F2F4F7"/>
<ellipse cx="138.602" cy="65.085" rx="7.16472" ry="6.91216" fill="#F2F4F7"/>
<ellipse cx="158.975" cy="65.085" rx="7.16472" ry="6.91216" fill="#F2F4F7"/>
<ellipse cx="179.348" cy="65.085" rx="7.16472" ry="6.91216" fill="#F2F4F7"/>
<ellipse cx="199.721" cy="65.085" rx="7.16472" ry="6.91216" fill="#F2F4F7"/>
<ellipse cx="220.094" cy="65.085" rx="7.16472" ry="6.91216" fill="#F2F4F7"/>
<ellipse cx="240.467" cy="65.085" rx="7.16472" ry="6.91216" fill="#F2F4F7"/>
<ellipse cx="260.841" cy="65.085" rx="7.16472" ry="6.91216" fill="#F2F4F7"/>
<ellipse cx="281.214" cy="65.085" rx="7.16472" ry="6.91216" fill="#F2F4F7"/>
<ellipse cx="301.587" cy="65.085" rx="7.16472" ry="6.91216" fill="#F2F4F7"/>
<ellipse cx="321.96" cy="65.085" rx="7.16472" ry="6.91216" fill="#F2F4F7"/>
<ellipse cx="342.333" cy="65.085" rx="7.16472" ry="6.91216" fill="#F2F4F7"/>
<ellipse cx="362.704" cy="65.085" rx="7.16472" ry="6.91216" fill="#F2F4F7"/>
<ellipse cx="383.079" cy="65.085" rx="7.16472" ry="6.91216" fill="#F2F4F7"/>
<ellipse cx="403.452" cy="65.085" rx="7.16472" ry="6.91216" fill="#F2F4F7"/>
<ellipse cx="6.40886" cy="83.1153" rx="7.16472" ry="6.91216" fill="#F2F4F7"/>
<ellipse cx="26.7819" cy="83.1153" rx="7.16472" ry="6.91216" fill="#F2F4F7"/>
<ellipse cx="47.155" cy="83.1153" rx="7.16472" ry="6.91216" fill="#F2F4F7"/>
<ellipse cx="67.526" cy="83.1153" rx="7.16472" ry="6.91216" fill="#F2F4F7"/>
<ellipse cx="87.8991" cy="83.1153" rx="7.16472" ry="6.91216" fill="#F2F4F7"/>
<ellipse cx="108.274" cy="83.1153" rx="7.16472" ry="6.91216" fill="#F2F4F7"/>
<ellipse cx="128.647" cy="83.1153" rx="7.16472" ry="6.91216" fill="#F2F4F7"/>
<ellipse cx="149.02" cy="83.1153" rx="7.16472" ry="6.91216" fill="#F2F4F7"/>
<ellipse cx="169.391" cy="83.1153" rx="7.16472" ry="6.91216" fill="#F2F4F7"/>
<ellipse cx="189.764" cy="83.1153" rx="7.16472" ry="6.91216" fill="#F2F4F7"/>
<ellipse cx="210.137" cy="83.1153" rx="7.16472" ry="6.91216" fill="#F2F4F7"/>
<ellipse cx="230.51" cy="83.1153" rx="7.16472" ry="6.91216" fill="#F2F4F7"/>
<ellipse cx="250.883" cy="83.1153" rx="7.16472" ry="6.91216" fill="#F2F4F7"/>
<ellipse cx="271.258" cy="83.1153" rx="7.16472" ry="6.91216" fill="#F2F4F7"/>
<ellipse cx="291.63" cy="83.1153" rx="7.16472" ry="6.91216" fill="#F2F4F7"/>
<ellipse cx="312.003" cy="83.1153" rx="7.16472" ry="6.91216" fill="#F2F4F7"/>
<ellipse cx="332.376" cy="83.1153" rx="7.16472" ry="6.91216" fill="#F2F4F7"/>
<ellipse cx="352.749" cy="83.1153" rx="7.16472" ry="6.91216" fill="#F2F4F7"/>
<ellipse cx="373.122" cy="83.1153" rx="7.16472" ry="6.91216" fill="#F2F4F7"/>
<ellipse cx="393.495" cy="83.1153" rx="7.16472" ry="6.91216" fill="#F2F4F7"/>
<ellipse cx="-4.00715" cy="101.472" rx="7.16472" ry="6.91216" fill="#F2F4F7"/>
<ellipse cx="16.3639" cy="101.472" rx="7.16472" ry="6.91216" fill="#F2F4F7"/>
<ellipse cx="36.7389" cy="101.472" rx="7.16472" ry="6.91216" fill="#F2F4F7"/>
<ellipse cx="57.112" cy="101.472" rx="7.16472" ry="6.91216" fill="#F2F4F7"/>
<ellipse cx="77.4831" cy="101.472" rx="7.16472" ry="6.91216" fill="#F2F4F7"/>
<ellipse cx="97.8561" cy="101.472" rx="7.16472" ry="6.91216" fill="#F2F4F7"/>
<ellipse cx="118.229" cy="101.472" rx="7.16472" ry="6.91216" fill="#F2F4F7"/>
<ellipse cx="138.602" cy="101.472" rx="7.16472" ry="6.91216" fill="#F2F4F7"/>
<ellipse cx="158.975" cy="101.472" rx="7.16472" ry="6.91216" fill="#F2F4F7"/>
<ellipse cx="179.348" cy="101.472" rx="7.16472" ry="6.91216" fill="#F2F4F7"/>
<ellipse cx="199.721" cy="101.472" rx="7.16472" ry="6.91216" fill="#F2F4F7"/>
<ellipse cx="220.094" cy="101.472" rx="7.16472" ry="6.91216" fill="#F2F4F7"/>
<ellipse cx="240.467" cy="101.472" rx="7.16472" ry="6.91216" fill="#F2F4F7"/>
<ellipse cx="260.841" cy="101.472" rx="7.16472" ry="6.91216" fill="#F2F4F7"/>
<ellipse cx="281.214" cy="101.472" rx="7.16472" ry="6.91216" fill="#F2F4F7"/>
<ellipse cx="301.587" cy="101.472" rx="7.16472" ry="6.91216" fill="#F2F4F7"/>
<ellipse cx="321.96" cy="101.472" rx="7.16472" ry="6.91216" fill="#F2F4F7"/>
<ellipse cx="342.333" cy="101.472" rx="7.16472" ry="6.91216" fill="#F2F4F7"/>
<ellipse cx="362.704" cy="101.472" rx="7.16472" ry="6.91216" fill="#F2F4F7"/>
<ellipse cx="383.079" cy="101.472" rx="7.16472" ry="6.91216" fill="#F2F4F7"/>
<ellipse cx="403.452" cy="101.472" rx="7.16472" ry="6.91216" fill="#F2F4F7"/>
<ellipse cx="6.40886" cy="119.503" rx="7.16472" ry="6.91216" fill="#F2F4F7"/>
<ellipse cx="26.7819" cy="119.503" rx="7.16472" ry="6.91216" fill="#F2F4F7"/>
<ellipse cx="47.155" cy="119.503" rx="7.16472" ry="6.91216" fill="#F2F4F7"/>
<ellipse cx="67.526" cy="119.503" rx="7.16472" ry="6.91216" fill="#F2F4F7"/>
<ellipse cx="87.8991" cy="119.503" rx="7.16472" ry="6.91216" fill="#F2F4F7"/>
<ellipse cx="108.274" cy="119.503" rx="7.16472" ry="6.91216" fill="#F2F4F7"/>
<ellipse cx="128.647" cy="119.503" rx="7.16472" ry="6.91216" fill="#F2F4F7"/>
<ellipse cx="149.018" cy="119.503" rx="7.16472" ry="6.91216" fill="#F2F4F7"/>
<ellipse cx="169.391" cy="119.503" rx="7.16472" ry="6.91216" fill="#F2F4F7"/>
<ellipse cx="189.764" cy="119.503" rx="7.16472" ry="6.91216" fill="#F2F4F7"/>
<ellipse cx="210.137" cy="119.503" rx="7.16472" ry="6.91216" fill="#F2F4F7"/>
<ellipse cx="230.51" cy="119.503" rx="7.16472" ry="6.91216" fill="#F2F4F7"/>
<ellipse cx="250.883" cy="119.503" rx="7.16472" ry="6.91216" fill="#F2F4F7"/>
<ellipse cx="271.257" cy="119.503" rx="7.16472" ry="6.91216" fill="#F2F4F7"/>
<ellipse cx="291.63" cy="119.503" rx="7.16472" ry="6.91216" fill="#F2F4F7"/>
<ellipse cx="312.003" cy="119.503" rx="7.16472" ry="6.91216" fill="#F2F4F7"/>
<ellipse cx="332.376" cy="119.503" rx="7.16472" ry="6.91216" fill="#F2F4F7"/>
<ellipse cx="352.747" cy="119.503" rx="7.16472" ry="6.91216" fill="#F2F4F7"/>
<ellipse cx="373.122" cy="119.503" rx="7.16472" ry="6.91216" fill="#F2F4F7"/>
<ellipse cx="393.495" cy="119.503" rx="7.16472" ry="6.91216" fill="#F2F4F7"/>
<ellipse cx="-4.00715" cy="137.857" rx="7.16472" ry="6.91216" fill="#F2F4F7"/>
<ellipse cx="16.3639" cy="137.857" rx="7.16472" ry="6.91216" fill="#F2F4F7"/>
<ellipse cx="36.7389" cy="137.857" rx="7.16472" ry="6.91216" fill="#F2F4F7"/>
<ellipse cx="57.112" cy="137.857" rx="7.16472" ry="6.91216" fill="#F2F4F7"/>
<ellipse cx="77.4831" cy="137.857" rx="7.16472" ry="6.91216" fill="#F2F4F7"/>
<ellipse cx="97.8561" cy="137.857" rx="7.16472" ry="6.91216" fill="#F2F4F7"/>
<ellipse cx="118.229" cy="137.857" rx="7.16472" ry="6.91216" fill="#F2F4F7"/>
<ellipse cx="138.602" cy="137.857" rx="7.16472" ry="6.91216" fill="#F2F4F7"/>
<ellipse cx="158.975" cy="137.857" rx="7.16472" ry="6.91216" fill="#F2F4F7"/>
<ellipse cx="179.348" cy="137.857" rx="7.16472" ry="6.91216" fill="#F2F4F7"/>
<ellipse cx="199.721" cy="137.857" rx="7.16472" ry="6.91216" fill="#F2F4F7"/>
<ellipse cx="220.094" cy="137.857" rx="7.16472" ry="6.91216" fill="#F2F4F7"/>
<ellipse cx="240.467" cy="137.857" rx="7.16472" ry="6.91216" fill="#F2F4F7"/>
<ellipse cx="260.841" cy="137.857" rx="7.16472" ry="6.91216" fill="#F2F4F7"/>
<ellipse cx="281.214" cy="137.857" rx="7.16472" ry="6.91216" fill="#F2F4F7"/>
<ellipse cx="301.587" cy="137.857" rx="7.16472" ry="6.91216" fill="#F2F4F7"/>
<ellipse cx="321.96" cy="137.857" rx="7.16472" ry="6.91216" fill="#F2F4F7"/>
<ellipse cx="342.333" cy="137.857" rx="7.16472" ry="6.91216" fill="#F2F4F7"/>
<ellipse cx="362.704" cy="137.857" rx="7.16472" ry="6.91216" fill="#F2F4F7"/>
<ellipse cx="383.079" cy="137.857" rx="7.16472" ry="6.91216" fill="#F2F4F7"/>
<ellipse cx="403.452" cy="137.857" rx="7.16472" ry="6.91216" fill="#F2F4F7"/>
<ellipse cx="6.40886" cy="155.889" rx="7.16472" ry="6.91216" fill="#F2F4F7"/>
<ellipse cx="26.7819" cy="155.889" rx="7.16472" ry="6.91216" fill="#F2F4F7"/>
<ellipse cx="47.155" cy="155.889" rx="7.16472" ry="6.91216" fill="#F2F4F7"/>
<ellipse cx="67.526" cy="155.889" rx="7.16472" ry="6.91216" fill="#F2F4F7"/>
<ellipse cx="87.8991" cy="155.889" rx="7.16472" ry="6.91216" fill="#F2F4F7"/>
<ellipse cx="108.274" cy="155.889" rx="7.16472" ry="6.91216" fill="#F2F4F7"/>
<ellipse cx="128.647" cy="155.889" rx="7.16472" ry="6.91216" fill="#F2F4F7"/>
<ellipse cx="149.018" cy="155.889" rx="7.16472" ry="6.91216" fill="#F2F4F7"/>
<ellipse cx="169.391" cy="155.889" rx="7.16472" ry="6.91216" fill="#F2F4F7"/>
<ellipse cx="189.764" cy="155.889" rx="7.16472" ry="6.91216" fill="#F2F4F7"/>
<ellipse cx="210.137" cy="155.889" rx="7.16472" ry="6.91216" fill="#F2F4F7"/>
<ellipse cx="230.51" cy="155.889" rx="7.16472" ry="6.91216" fill="#F2F4F7"/>
<ellipse cx="250.883" cy="155.889" rx="7.16472" ry="6.91216" fill="#F2F4F7"/>
<ellipse cx="271.257" cy="155.889" rx="7.16472" ry="6.91216" fill="#F2F4F7"/>
<ellipse cx="291.63" cy="155.889" rx="7.16472" ry="6.91216" fill="#F2F4F7"/>
<ellipse cx="312.003" cy="155.889" rx="7.16472" ry="6.91216" fill="#F2F4F7"/>
<ellipse cx="332.376" cy="155.889" rx="7.16472" ry="6.91216" fill="#F2F4F7"/>
<ellipse cx="352.747" cy="155.889" rx="7.16472" ry="6.91216" fill="#F2F4F7"/>
<ellipse cx="373.122" cy="155.889" rx="7.16472" ry="6.91216" fill="#F2F4F7"/>
<ellipse cx="393.495" cy="155.889" rx="7.16472" ry="6.91216" fill="#F2F4F7"/>
<ellipse cx="-4.00715" cy="174.244" rx="7.16472" ry="6.91216" fill="#F2F4F7"/>
<ellipse cx="16.3639" cy="174.244" rx="7.16472" ry="6.91216" fill="#F2F4F7"/>
<ellipse cx="36.7389" cy="174.244" rx="7.16472" ry="6.91216" fill="#F2F4F7"/>
<ellipse cx="57.11" cy="174.244" rx="7.16472" ry="6.91216" fill="#F2F4F7"/>
<ellipse cx="77.4831" cy="174.244" rx="7.16472" ry="6.91216" fill="#F2F4F7"/>
<ellipse cx="97.8561" cy="174.244" rx="7.16472" ry="6.91216" fill="#F2F4F7"/>
<ellipse cx="118.229" cy="174.244" rx="7.16472" ry="6.91216" fill="#F2F4F7"/>
<ellipse cx="138.602" cy="174.244" rx="7.16472" ry="6.91216" fill="#F2F4F7"/>
<ellipse cx="158.975" cy="174.244" rx="7.16472" ry="6.91216" fill="#F2F4F7"/>
<ellipse cx="179.348" cy="174.244" rx="7.16472" ry="6.91216" fill="#F2F4F7"/>
<ellipse cx="199.721" cy="174.244" rx="7.16472" ry="6.91216" fill="#F2F4F7"/>
<ellipse cx="220.094" cy="174.244" rx="7.16472" ry="6.91216" fill="#F2F4F7"/>
<ellipse cx="240.467" cy="174.244" rx="7.16472" ry="6.91216" fill="#F2F4F7"/>
<ellipse cx="260.841" cy="174.244" rx="7.16472" ry="6.91216" fill="#F2F4F7"/>
<ellipse cx="281.214" cy="174.244" rx="7.16472" ry="6.91216" fill="#F2F4F7"/>
<ellipse cx="301.587" cy="174.244" rx="7.16472" ry="6.91216" fill="#F2F4F7"/>
<ellipse cx="321.96" cy="174.244" rx="7.16472" ry="6.91216" fill="#F2F4F7"/>
<ellipse cx="342.333" cy="174.244" rx="7.16472" ry="6.91216" fill="#F2F4F7"/>
<ellipse cx="362.704" cy="174.244" rx="7.16472" ry="6.91216" fill="#F2F4F7"/>
<ellipse cx="383.079" cy="174.244" rx="7.16472" ry="6.91216" fill="#F2F4F7"/>
<ellipse cx="403.452" cy="174.244" rx="7.16472" ry="6.91216" fill="#F2F4F7"/>
<ellipse cx="6.40886" cy="192.275" rx="7.16472" ry="6.91216" fill="#F2F4F7"/>
<ellipse cx="26.7819" cy="192.275" rx="7.16472" ry="6.91216" fill="#F2F4F7"/>
<ellipse cx="47.155" cy="192.275" rx="7.16472" ry="6.91216" fill="#F2F4F7"/>
<ellipse cx="67.526" cy="192.275" rx="7.16472" ry="6.91216" fill="#F2F4F7"/>
<ellipse cx="87.8991" cy="192.275" rx="7.16472" ry="6.91216" fill="#F2F4F7"/>
<ellipse cx="108.274" cy="192.275" rx="7.16472" ry="6.91216" fill="#F2F4F7"/>
<ellipse cx="128.647" cy="192.275" rx="7.16472" ry="6.91216" fill="#F2F4F7"/>
<ellipse cx="149.02" cy="192.275" rx="7.16472" ry="6.91216" fill="#F2F4F7"/>
<ellipse cx="169.391" cy="192.275" rx="7.16472" ry="6.91216" fill="#F2F4F7"/>
<ellipse cx="189.764" cy="192.275" rx="7.16472" ry="6.91216" fill="#F2F4F7"/>
<ellipse cx="210.137" cy="192.275" rx="7.16472" ry="6.91216" fill="#F2F4F7"/>
<ellipse cx="230.51" cy="192.275" rx="7.16472" ry="6.91216" fill="#F2F4F7"/>
<ellipse cx="250.883" cy="192.275" rx="7.16472" ry="6.91216" fill="#F2F4F7"/>
<ellipse cx="271.258" cy="192.275" rx="7.16472" ry="6.91216" fill="#F2F4F7"/>
<ellipse cx="291.63" cy="192.275" rx="7.16472" ry="6.91216" fill="#F2F4F7"/>
<ellipse cx="312.003" cy="192.275" rx="7.16472" ry="6.91216" fill="#F2F4F7"/>
<ellipse cx="332.376" cy="192.275" rx="7.16472" ry="6.91216" fill="#F2F4F7"/>
<ellipse cx="352.749" cy="192.275" rx="7.16472" ry="6.91216" fill="#F2F4F7"/>
<ellipse cx="373.122" cy="192.275" rx="7.16472" ry="6.91216" fill="#F2F4F7"/>
<ellipse cx="393.495" cy="192.275" rx="7.16472" ry="6.91216" fill="#F2F4F7"/>
<ellipse cx="-4.00715" cy="210.632" rx="7.16472" ry="6.91216" fill="#F2F4F7"/>
<ellipse cx="16.3639" cy="210.632" rx="7.16472" ry="6.91216" fill="#F2F4F7"/>
<ellipse cx="36.7389" cy="210.632" rx="7.16472" ry="6.91216" fill="#F2F4F7"/>
<ellipse cx="57.112" cy="210.632" rx="7.16472" ry="6.91216" fill="#F2F4F7"/>
<ellipse cx="77.4831" cy="210.632" rx="7.16472" ry="6.91216" fill="#F2F4F7"/>
<ellipse cx="97.8561" cy="210.632" rx="7.16472" ry="6.91216" fill="#F2F4F7"/>
<ellipse cx="118.229" cy="210.632" rx="7.16472" ry="6.91216" fill="#F2F4F7"/>
<ellipse cx="138.602" cy="210.632" rx="7.16472" ry="6.91216" fill="#F2F4F7"/>
<ellipse cx="158.975" cy="210.632" rx="7.16472" ry="6.91216" fill="#F2F4F7"/>
<ellipse cx="179.348" cy="210.632" rx="7.16472" ry="6.91216" fill="#F2F4F7"/>
<ellipse cx="199.721" cy="210.632" rx="7.16472" ry="6.91216" fill="#F2F4F7"/>
<ellipse cx="220.094" cy="210.632" rx="7.16472" ry="6.91216" fill="#F2F4F7"/>
<ellipse cx="240.467" cy="210.632" rx="7.16472" ry="6.91216" fill="#F2F4F7"/>
<ellipse cx="260.841" cy="210.632" rx="7.16472" ry="6.91216" fill="#F2F4F7"/>
<ellipse cx="281.214" cy="210.632" rx="7.16472" ry="6.91216" fill="#F2F4F7"/>
<ellipse cx="301.587" cy="210.632" rx="7.16472" ry="6.91216" fill="#F2F4F7"/>
<ellipse cx="321.96" cy="210.632" rx="7.16472" ry="6.91216" fill="#F2F4F7"/>
<ellipse cx="342.333" cy="210.632" rx="7.16472" ry="6.91216" fill="#F2F4F7"/>
<ellipse cx="362.704" cy="210.632" rx="7.16472" ry="6.91216" fill="#F2F4F7"/>
<ellipse cx="383.079" cy="210.632" rx="7.16472" ry="6.91216" fill="#F2F4F7"/>
<ellipse cx="403.452" cy="210.632" rx="7.16472" ry="6.91216" fill="#F2F4F7"/>
<ellipse cx="6.40886" cy="228.661" rx="7.16472" ry="6.91216" fill="#F2F4F7"/>
<ellipse cx="26.7819" cy="228.661" rx="7.16472" ry="6.91216" fill="#F2F4F7"/>
<ellipse cx="47.155" cy="228.661" rx="7.16472" ry="6.91216" fill="#F2F4F7"/>
<ellipse cx="67.526" cy="228.661" rx="7.16472" ry="6.91216" fill="#F2F4F7"/>
<ellipse cx="87.8991" cy="228.661" rx="7.16472" ry="6.91216" fill="#F2F4F7"/>
<ellipse cx="108.274" cy="228.661" rx="7.16472" ry="6.91216" fill="#F2F4F7"/>
<ellipse cx="128.647" cy="228.661" rx="7.16472" ry="6.91216" fill="#F2F4F7"/>
<ellipse cx="149.018" cy="228.661" rx="7.16472" ry="6.91216" fill="#F2F4F7"/>
<ellipse cx="169.391" cy="228.661" rx="7.16472" ry="6.91216" fill="#F2F4F7"/>
<ellipse cx="189.764" cy="228.661" rx="7.16472" ry="6.91216" fill="#F2F4F7"/>
<ellipse cx="210.137" cy="228.661" rx="7.16472" ry="6.91216" fill="#F2F4F7"/>
<ellipse cx="230.51" cy="228.661" rx="7.16472" ry="6.91216" fill="#F2F4F7"/>
<ellipse cx="250.883" cy="228.661" rx="7.16472" ry="6.91216" fill="#F2F4F7"/>
<ellipse cx="271.258" cy="228.661" rx="7.16472" ry="6.91216" fill="#F2F4F7"/>
<ellipse cx="291.63" cy="228.661" rx="7.16472" ry="6.91216" fill="#F2F4F7"/>
<ellipse cx="312.003" cy="228.661" rx="7.16472" ry="6.91216" fill="#F2F4F7"/>
<ellipse cx="332.376" cy="228.661" rx="7.16472" ry="6.91216" fill="#F2F4F7"/>
<ellipse cx="352.749" cy="228.661" rx="7.16472" ry="6.91216" fill="#F2F4F7"/>
<ellipse cx="373.122" cy="228.661" rx="7.16472" ry="6.91216" fill="#F2F4F7"/>
<ellipse cx="393.495" cy="228.661" rx="7.16472" ry="6.91216" fill="#F2F4F7"/>
<ellipse cx="-4.00715" cy="247.018" rx="7.16472" ry="6.91216" fill="#F2F4F7"/>
<ellipse cx="16.3639" cy="247.018" rx="7.16472" ry="6.91216" fill="#F2F4F7"/>
<ellipse cx="36.7389" cy="247.018" rx="7.16472" ry="6.91216" fill="#F2F4F7"/>
<ellipse cx="57.112" cy="247.018" rx="7.16472" ry="6.91216" fill="#F2F4F7"/>
<ellipse cx="77.4831" cy="247.018" rx="7.16472" ry="6.91216" fill="#F2F4F7"/>
<ellipse cx="97.8561" cy="247.018" rx="7.16472" ry="6.91216" fill="#F2F4F7"/>
<ellipse cx="118.229" cy="247.018" rx="7.16472" ry="6.91216" fill="#F2F4F7"/>
<ellipse cx="138.602" cy="247.018" rx="7.16472" ry="6.91216" fill="#F2F4F7"/>
<ellipse cx="158.975" cy="247.018" rx="7.16472" ry="6.91216" fill="#F2F4F7"/>
<ellipse cx="179.348" cy="247.018" rx="7.16472" ry="6.91216" fill="#F2F4F7"/>
<ellipse cx="199.721" cy="247.018" rx="7.16472" ry="6.91216" fill="#F2F4F7"/>
<ellipse cx="220.094" cy="247.018" rx="7.16472" ry="6.91216" fill="#F2F4F7"/>
<ellipse cx="240.467" cy="247.018" rx="7.16472" ry="6.91216" fill="#F2F4F7"/>
<ellipse cx="260.841" cy="247.018" rx="7.16472" ry="6.91216" fill="#F2F4F7"/>
<ellipse cx="281.214" cy="247.018" rx="7.16472" ry="6.91216" fill="#F2F4F7"/>
<ellipse cx="301.587" cy="247.018" rx="7.16472" ry="6.91216" fill="#F2F4F7"/>
<ellipse cx="321.96" cy="247.018" rx="7.16472" ry="6.91216" fill="#F2F4F7"/>
<ellipse cx="342.333" cy="247.018" rx="7.16472" ry="6.91216" fill="#F2F4F7"/>
<ellipse cx="362.704" cy="247.018" rx="7.16472" ry="6.91216" fill="#F2F4F7"/>
<ellipse cx="383.079" cy="247.018" rx="7.16472" ry="6.91216" fill="#F2F4F7"/>
<ellipse cx="403.452" cy="247.018" rx="7.16472" ry="6.91216" fill="#F2F4F7"/>
<ellipse cx="6.40886" cy="265.047" rx="7.16472" ry="6.91216" fill="#F2F4F7"/>
<ellipse cx="26.7819" cy="265.047" rx="7.16472" ry="6.91216" fill="#F2F4F7"/>
<ellipse cx="47.155" cy="265.047" rx="7.16472" ry="6.91216" fill="#F2F4F7"/>
<ellipse cx="67.526" cy="265.047" rx="7.16472" ry="6.91216" fill="#F2F4F7"/>
<ellipse cx="87.8991" cy="265.047" rx="7.16472" ry="6.91216" fill="#F2F4F7"/>
<ellipse cx="108.274" cy="265.047" rx="7.16472" ry="6.91216" fill="#F2F4F7"/>
<ellipse cx="128.647" cy="265.047" rx="7.16472" ry="6.91216" fill="#F2F4F7"/>
<ellipse cx="149.018" cy="265.047" rx="7.16472" ry="6.91216" fill="#F2F4F7"/>
<ellipse cx="169.391" cy="265.047" rx="7.16472" ry="6.91216" fill="#F2F4F7"/>
<ellipse cx="189.764" cy="265.047" rx="7.16472" ry="6.91216" fill="#F2F4F7"/>
<ellipse cx="210.137" cy="265.047" rx="7.16472" ry="6.91216" fill="#F2F4F7"/>
<ellipse cx="230.51" cy="265.047" rx="7.16472" ry="6.91216" fill="#F2F4F7"/>
<ellipse cx="250.883" cy="265.047" rx="7.16472" ry="6.91216" fill="#F2F4F7"/>
<ellipse cx="271.258" cy="265.047" rx="7.16472" ry="6.91216" fill="#F2F4F7"/>
<ellipse cx="291.63" cy="265.047" rx="7.16472" ry="6.91216" fill="#F2F4F7"/>
<ellipse cx="312.003" cy="265.047" rx="7.16472" ry="6.91216" fill="#F2F4F7"/>
<ellipse cx="332.376" cy="265.047" rx="7.16472" ry="6.91216" fill="#F2F4F7"/>
<ellipse cx="352.749" cy="265.047" rx="7.16472" ry="6.91216" fill="#F2F4F7"/>
<ellipse cx="373.122" cy="265.047" rx="7.16472" ry="6.91216" fill="#F2F4F7"/>
<ellipse cx="393.495" cy="265.047" rx="7.16472" ry="6.91216" fill="#F2F4F7"/>
<ellipse cx="-4.00715" cy="283.404" rx="7.16472" ry="6.91216" fill="#F2F4F7"/>
<ellipse cx="16.3659" cy="283.404" rx="7.16472" ry="6.91216" fill="#F2F4F7"/>
<ellipse cx="36.7389" cy="283.404" rx="7.16472" ry="6.91216" fill="#F2F4F7"/>
<ellipse cx="57.11" cy="283.404" rx="7.16472" ry="6.91216" fill="#F2F4F7"/>
<ellipse cx="77.4831" cy="283.404" rx="7.16472" ry="6.91216" fill="#F2F4F7"/>
<ellipse cx="97.8561" cy="283.404" rx="7.16472" ry="6.91216" fill="#F2F4F7"/>
<ellipse cx="118.229" cy="283.404" rx="7.16472" ry="6.91216" fill="#F2F4F7"/>
<ellipse cx="138.602" cy="283.404" rx="7.16472" ry="6.91216" fill="#F2F4F7"/>
<ellipse cx="158.975" cy="283.404" rx="7.16472" ry="6.91216" fill="#F2F4F7"/>
<ellipse cx="179.348" cy="283.404" rx="7.16472" ry="6.91216" fill="#F2F4F7"/>
<ellipse cx="199.721" cy="283.404" rx="7.16472" ry="6.91216" fill="#F2F4F7"/>
<ellipse cx="220.094" cy="283.404" rx="7.16472" ry="6.91216" fill="#F2F4F7"/>
<ellipse cx="240.467" cy="283.404" rx="7.16472" ry="6.91216" fill="#F2F4F7"/>
<ellipse cx="260.841" cy="283.404" rx="7.16472" ry="6.91216" fill="#F2F4F7"/>
<ellipse cx="281.214" cy="283.404" rx="7.16472" ry="6.91216" fill="#F2F4F7"/>
<ellipse cx="301.587" cy="283.404" rx="7.16472" ry="6.91216" fill="#F2F4F7"/>
<ellipse cx="321.96" cy="283.404" rx="7.16472" ry="6.91216" fill="#F2F4F7"/>
<ellipse cx="342.333" cy="283.404" rx="7.16472" ry="6.91216" fill="#F2F4F7"/>
<ellipse cx="362.704" cy="283.404" rx="7.16472" ry="6.91216" fill="#F2F4F7"/>
<ellipse cx="383.079" cy="283.404" rx="7.16472" ry="6.91216" fill="#F2F4F7"/>
<ellipse cx="403.452" cy="283.404" rx="7.16472" ry="6.91216" fill="#F2F4F7"/>
<ellipse cx="6.40886" cy="301.435" rx="7.16472" ry="6.91216" fill="#F2F4F7"/>
<ellipse cx="26.7819" cy="301.435" rx="7.16472" ry="6.91216" fill="#F2F4F7"/>
<ellipse cx="47.155" cy="301.435" rx="7.16472" ry="6.91216" fill="#F2F4F7"/>
<ellipse cx="67.526" cy="301.435" rx="7.16472" ry="6.91216" fill="#F2F4F7"/>
<ellipse cx="87.8991" cy="301.435" rx="7.16472" ry="6.91216" fill="#F2F4F7"/>
<ellipse cx="108.274" cy="301.435" rx="7.16472" ry="6.91216" fill="#F2F4F7"/>
<ellipse cx="128.645" cy="301.435" rx="7.16472" ry="6.91216" fill="#F2F4F7"/>
<ellipse cx="149.02" cy="301.435" rx="7.16472" ry="6.91216" fill="#F2F4F7"/>
<ellipse cx="169.391" cy="301.435" rx="7.16472" ry="6.91216" fill="#F2F4F7"/>
<ellipse cx="189.764" cy="301.435" rx="7.16472" ry="6.91216" fill="#F2F4F7"/>
<ellipse cx="210.137" cy="301.435" rx="7.16472" ry="6.91216" fill="#F2F4F7"/>
<ellipse cx="230.51" cy="301.435" rx="7.16472" ry="6.91216" fill="#F2F4F7"/>
<ellipse cx="250.883" cy="301.435" rx="7.16472" ry="6.91216" fill="#F2F4F7"/>
<ellipse cx="271.257" cy="301.435" rx="7.16472" ry="6.91216" fill="#F2F4F7"/>
<ellipse cx="291.63" cy="301.435" rx="7.16472" ry="6.91216" fill="#F2F4F7"/>
<ellipse cx="312.003" cy="301.435" rx="7.16472" ry="6.91216" fill="#F2F4F7"/>
<ellipse cx="332.376" cy="301.435" rx="7.16472" ry="6.91216" fill="#F2F4F7"/>
<ellipse cx="352.747" cy="301.435" rx="7.16472" ry="6.91216" fill="#F2F4F7"/>
<ellipse cx="373.122" cy="301.435" rx="7.16472" ry="6.91216" fill="#F2F4F7"/>
<ellipse cx="393.495" cy="301.435" rx="7.16472" ry="6.91216" fill="#F2F4F7"/>
<ellipse cx="-4.00715" cy="319.79" rx="7.16472" ry="6.91216" fill="#F2F4F7"/>
<ellipse cx="16.3659" cy="319.79" rx="7.16472" ry="6.91216" fill="#F2F4F7"/>
<ellipse cx="36.7389" cy="319.79" rx="7.16472" ry="6.91216" fill="#F2F4F7"/>
<ellipse cx="57.11" cy="319.79" rx="7.16472" ry="6.91216" fill="#F2F4F7"/>
<ellipse cx="77.4831" cy="319.79" rx="7.16472" ry="6.91216" fill="#F2F4F7"/>
<ellipse cx="97.8561" cy="319.79" rx="7.16472" ry="6.91216" fill="#F2F4F7"/>
<ellipse cx="118.229" cy="319.79" rx="7.16472" ry="6.91216" fill="#F2F4F7"/>
<ellipse cx="138.602" cy="319.79" rx="7.16472" ry="6.91216" fill="#F2F4F7"/>
<ellipse cx="158.975" cy="319.79" rx="7.16472" ry="6.91216" fill="#F2F4F7"/>
<ellipse cx="179.348" cy="319.79" rx="7.16472" ry="6.91216" fill="#F2F4F7"/>
<ellipse cx="199.721" cy="319.79" rx="7.16472" ry="6.91216" fill="#F2F4F7"/>
<ellipse cx="220.094" cy="319.79" rx="7.16472" ry="6.91216" fill="#F2F4F7"/>
<ellipse cx="240.467" cy="319.79" rx="7.16472" ry="6.91216" fill="#F2F4F7"/>
<ellipse cx="260.841" cy="319.79" rx="7.16472" ry="6.91216" fill="#F2F4F7"/>
<ellipse cx="281.214" cy="319.79" rx="7.16472" ry="6.91216" fill="#F2F4F7"/>
<ellipse cx="301.587" cy="319.79" rx="7.16472" ry="6.91216" fill="#F2F4F7"/>
<ellipse cx="321.96" cy="319.79" rx="7.16472" ry="6.91216" fill="#F2F4F7"/>
<ellipse cx="342.333" cy="319.79" rx="7.16472" ry="6.91216" fill="#F2F4F7"/>
<ellipse cx="362.704" cy="319.79" rx="7.16472" ry="6.91216" fill="#F2F4F7"/>
<ellipse cx="383.079" cy="319.79" rx="7.16472" ry="6.91216" fill="#F2F4F7"/>
<ellipse cx="403.452" cy="319.79" rx="7.16472" ry="6.91216" fill="#F2F4F7"/>
<ellipse cx="6.40886" cy="337.821" rx="7.16472" ry="6.91216" fill="#F2F4F7"/>
<ellipse cx="26.7819" cy="337.821" rx="7.16472" ry="6.91216" fill="#F2F4F7"/>
<ellipse cx="47.155" cy="337.821" rx="7.16472" ry="6.91216" fill="#F2F4F7"/>
<ellipse cx="67.526" cy="337.821" rx="7.16472" ry="6.91216" fill="#F2F4F7"/>
<ellipse cx="87.8991" cy="337.821" rx="7.16472" ry="6.91216" fill="#F2F4F7"/>
<ellipse cx="108.274" cy="337.821" rx="7.16472" ry="6.91216" fill="#F2F4F7"/>
<ellipse cx="128.647" cy="337.821" rx="7.16472" ry="6.91216" fill="#F2F4F7"/>
<ellipse cx="149.02" cy="337.821" rx="7.16472" ry="6.91216" fill="#F2F4F7"/>
<ellipse cx="169.391" cy="337.821" rx="7.16472" ry="6.91216" fill="#F2F4F7"/>
<ellipse cx="189.764" cy="337.821" rx="7.16472" ry="6.91216" fill="#F2F4F7"/>
<ellipse cx="210.137" cy="337.821" rx="7.16472" ry="6.91216" fill="#F2F4F7"/>
<ellipse cx="230.51" cy="337.821" rx="7.16472" ry="6.91216" fill="#F2F4F7"/>
<ellipse cx="250.883" cy="337.821" rx="7.16472" ry="6.91216" fill="#F2F4F7"/>
<ellipse cx="271.258" cy="337.821" rx="7.16472" ry="6.91216" fill="#F2F4F7"/>
<ellipse cx="291.63" cy="337.821" rx="7.16472" ry="6.91216" fill="#F2F4F7"/>
<ellipse cx="312.003" cy="337.821" rx="7.16472" ry="6.91216" fill="#F2F4F7"/>
<ellipse cx="332.376" cy="337.821" rx="7.16472" ry="6.91216" fill="#F2F4F7"/>
<ellipse cx="352.749" cy="337.821" rx="7.16472" ry="6.91216" fill="#F2F4F7"/>
<ellipse cx="373.122" cy="337.821" rx="7.16472" ry="6.91216" fill="#F2F4F7"/>
<ellipse cx="393.495" cy="337.821" rx="7.16472" ry="6.91216" fill="#F2F4F7"/>
<ellipse cx="-4.00715" cy="356.178" rx="7.16472" ry="6.91216" fill="#F2F4F7"/>
<ellipse cx="16.3639" cy="356.178" rx="7.16472" ry="6.91216" fill="#F2F4F7"/>
<ellipse cx="36.7389" cy="356.178" rx="7.16472" ry="6.91216" fill="#F2F4F7"/>
<ellipse cx="57.11" cy="356.178" rx="7.16472" ry="6.91216" fill="#F2F4F7"/>
<ellipse cx="77.4831" cy="356.178" rx="7.16472" ry="6.91216" fill="#F2F4F7"/>
<ellipse cx="97.8561" cy="356.178" rx="7.16472" ry="6.91216" fill="#F2F4F7"/>
<ellipse cx="118.229" cy="356.178" rx="7.16472" ry="6.91216" fill="#F2F4F7"/>
<ellipse cx="138.602" cy="356.178" rx="7.16472" ry="6.91216" fill="#F2F4F7"/>
<ellipse cx="158.975" cy="356.178" rx="7.16472" ry="6.91216" fill="#F2F4F7"/>
<ellipse cx="179.348" cy="356.178" rx="7.16472" ry="6.91216" fill="#F2F4F7"/>
<ellipse cx="199.721" cy="356.178" rx="7.16472" ry="6.91216" fill="#F2F4F7"/>
<ellipse cx="220.094" cy="356.178" rx="7.16472" ry="6.91216" fill="#F2F4F7"/>
<ellipse cx="240.467" cy="356.178" rx="7.16472" ry="6.91216" fill="#F2F4F7"/>
<ellipse cx="260.841" cy="356.178" rx="7.16472" ry="6.91216" fill="#F2F4F7"/>
<ellipse cx="281.214" cy="356.178" rx="7.16472" ry="6.91216" fill="#F2F4F7"/>
<ellipse cx="301.587" cy="356.178" rx="7.16472" ry="6.91216" fill="#F2F4F7"/>
<ellipse cx="321.96" cy="356.178" rx="7.16472" ry="6.91216" fill="#F2F4F7"/>
<ellipse cx="342.333" cy="356.178" rx="7.16472" ry="6.91216" fill="#F2F4F7"/>
<ellipse cx="362.704" cy="356.178" rx="7.16472" ry="6.91216" fill="#F2F4F7"/>
<ellipse cx="383.079" cy="356.178" rx="7.16472" ry="6.91216" fill="#F2F4F7"/>
<ellipse cx="403.452" cy="356.178" rx="7.16472" ry="6.91216" fill="#F2F4F7"/>
</g>
<defs>
<linearGradient id="paint0_linear_40_37667" x1="201.556" y1="16.6347" x2="217.477" y2="37.4338" gradientUnits="userSpaceOnUse">
<stop stop-color="#85C9E0"/>
<stop offset="1" stop-color="white" stop-opacity="0"/>
</linearGradient>
</defs>
</svg>
