<svg width="99" height="34" viewBox="0 0 99 34" fill="none" xmlns="http://www.w3.org/2000/svg">
<path d="M26.2137 14.4711V0.335447H30.1515V14.4711H26.2137Z" fill="white"/>
<path d="M40.7562 14.7538C36.354 14.7538 33.0624 11.7247 33.0624 7.44365V7.40327C33.0624 3.28374 36.2934 0.0527344 40.6754 0.0527344C43.1593 0.0527344 44.9161 0.820097 46.4105 2.1125L44.1084 4.87905C43.0987 4.03091 42.089 3.54626 40.6956 3.54626C38.656 3.54626 37.0809 5.26273 37.0809 7.42346V7.46385C37.0809 9.74574 38.6762 11.3814 40.9178 11.3814C41.8669 11.3814 42.5938 11.1795 43.1795 10.7958V9.07935H40.3927V6.21184H46.8951V12.5729C45.4008 13.8047 43.3208 14.7538 40.7562 14.7538Z" fill="white"/>
<path d="M49.9556 14.4711V0.335447H53.8933V14.4711H49.9556Z" fill="white"/>
<path d="M60.742 14.4711V3.76839H56.5014V0.335447H68.9004V3.76839H64.6596V14.4711H60.742Z" fill="white"/>
<path d="M68.4826 14.4711L74.5003 0.234478H78.2765L84.2943 14.4711H80.094L79.0641 11.9469H73.6118L72.6021 14.4711H68.4826ZM74.7628 8.89761H77.9332L76.3581 4.87905L74.7628 8.89761Z" fill="white"/>
<path d="M92.3718 14.7538C88.333 14.7538 85.0818 11.6642 85.0818 7.44365V7.40327C85.0818 3.28374 88.2523 0.0527344 92.5333 0.0527344C95.421 0.0527344 97.2789 1.26436 98.5309 3.00103L95.5826 5.28292C94.7748 4.27323 93.8459 3.62703 92.4929 3.62703C90.5139 3.62703 89.1206 5.30311 89.1206 7.36288V7.40327C89.1206 9.52361 90.5139 11.1795 92.4929 11.1795C93.9671 11.1795 94.8354 10.4929 95.6836 9.46303L98.6318 11.5632C97.2991 13.4008 95.5018 14.7538 92.3718 14.7538Z" fill="white"/>
<path d="M15.6923 0.175892L6.5428 0.175871C5.65623 0.175869 4.93753 0.894576 4.93753 1.78115C4.93753 2.66771 5.65623 3.38642 6.54279 3.38642L15.1262 3.38644C16.2728 3.38644 19.1003 3.93925 19.1003 7.12042C19.1003 10.3016 16.3086 11.2607 15.1262 11.2607H6.54274C5.65617 11.2607 4.93746 11.9795 4.93746 12.866C4.93746 13.7526 5.65461 14.4713 6.54118 14.4713H15.6923C21.7214 14.4713 23.1949 10.1014 23.1949 6.79976C23.1949 1.87614 18.1932 0.198414 15.6923 0.175892Z" fill="white"/>
<path d="M-1.30308e-05 7.16931C-1.30308e-05 6.27339 0.726271 5.54711 1.62219 5.54711H9.63614C10.5321 5.54711 11.2583 6.27339 11.2583 7.16931C11.2583 8.06523 10.5321 8.79151 9.63614 8.79151H1.62219C0.726272 8.79151 -1.30308e-05 8.06523 -1.30308e-05 7.16931Z" fill="white"/>
<path d="M16.8509 7.16943C16.8509 8.21515 16.0031 9.06287 14.9574 9.06287C13.9117 9.06287 13.064 8.21515 13.064 7.16943C13.064 6.12371 13.9117 5.27598 14.9574 5.27598C16.0031 5.27598 16.8509 6.12371 16.8509 7.16943Z" fill="white"/>
<path d="M5.36402 33.7412V19.6055H6.95932V25.8858H15.1176V19.6055H16.7129V33.7412H15.1176V27.3802H6.95932V33.7412H5.36402Z" fill="white"/>
<path d="M27.1686 33.9633C23.675 33.9633 21.2922 31.8228 21.2922 27.8244V19.6055H22.8875V27.7234C22.8875 30.7727 24.503 32.4892 27.2089 32.4892C29.8139 32.4892 31.4698 30.9141 31.4698 27.8244V19.6055H33.0651V27.7033C33.0651 31.8228 30.7025 33.9633 27.1686 33.9633Z" fill="white"/>
<path d="M37.6449 33.7412V19.6055H43.6626C45.2781 19.6055 46.5503 20.07 47.3581 20.8576C47.9437 21.4634 48.2668 22.2105 48.2668 23.1193V23.1597C48.2668 24.9973 47.1359 25.9464 46.0253 26.431C47.7014 26.9359 49.0544 27.9052 49.0544 29.8438V29.8842C49.0544 32.3074 47.0148 33.7412 43.9251 33.7412H37.6449ZM39.22 25.906H43.4001C45.3185 25.906 46.6513 25.0377 46.6513 23.3818V23.3414C46.6513 21.948 45.5406 21.0393 43.5213 21.0393H39.22V25.906ZM39.22 32.3074H43.9655C46.1061 32.3074 47.4389 31.3583 47.4389 29.7832V29.7428C47.4389 28.2081 46.1465 27.3196 43.6828 27.3196H39.22V32.3074Z" fill="white"/>
</svg>
