<svg width="20" height="21" viewBox="0 0 20 21" fill="none" xmlns="http://www.w3.org/2000/svg">
<g clip-path="url(#clip0_236_43847)">
<path d="M13.3333 5.96224V5.29557C13.3333 4.36215 13.3333 3.89544 13.1517 3.53892C12.9919 3.22532 12.7369 2.97035 12.4233 2.81056C12.0668 2.62891 11.6001 2.62891 10.6667 2.62891H9.33333C8.39991 2.62891 7.9332 2.62891 7.57668 2.81056C7.26308 2.97035 7.00811 3.22532 6.84832 3.53892C6.66667 3.89544 6.66667 4.36215 6.66667 5.29557V5.96224M8.33333 10.5456V14.7122M11.6667 10.5456V14.7122M2.5 5.96224H17.5M15.8333 5.96224V15.2956C15.8333 16.6957 15.8333 17.3958 15.5608 17.9306C15.3212 18.401 14.9387 18.7834 14.4683 19.0231C13.9335 19.2956 13.2335 19.2956 11.8333 19.2956H8.16667C6.76654 19.2956 6.06647 19.2956 5.53169 19.0231C5.06129 18.7834 4.67883 18.401 4.43915 17.9306C4.16667 17.3958 4.16667 16.6957 4.16667 15.2956V5.96224" stroke="#667085" stroke-width="1.66667" stroke-linecap="round" stroke-linejoin="round"/>
</g>
<defs>
<clipPath id="clip0_236_43847">
<rect width="20" height="20" fill="white" transform="translate(0 0.960938)"/>
</clipPath>
</defs>
</svg>
