<svg width="20" height="21" viewBox="0 0 20 21" fill="none" xmlns="http://www.w3.org/2000/svg">
<g clip-path="url(#clip0_236_43648)">
<path d="M8.33366 13.4622L5.77095 16.057C5.41348 16.4189 5.23475 16.5999 5.08112 16.6127C4.94784 16.6237 4.81734 16.5701 4.73029 16.4686C4.62996 16.3516 4.62996 16.0972 4.62996 15.5885V14.2886C4.62996 13.8322 4.25622 13.502 3.80466 13.4358V13.4358C2.71178 13.2758 1.85347 12.4175 1.69339 11.3246C1.66699 11.1444 1.66699 10.9293 1.66699 10.4993V6.62891C1.66699 5.22878 1.66699 4.52871 1.93948 3.99393C2.17916 3.52352 2.56161 3.14107 3.03202 2.90139C3.5668 2.62891 4.26686 2.62891 5.66699 2.62891H11.8337C13.2338 2.62891 13.9339 2.62891 14.4686 2.90139C14.939 3.14107 15.3215 3.52352 15.5612 3.99393C15.8337 4.52871 15.8337 5.22878 15.8337 6.62891V10.1289M15.8337 19.2956L14.02 18.0346C13.765 17.8574 13.6376 17.7688 13.4988 17.7059C13.3757 17.6502 13.2462 17.6096 13.1133 17.5851C12.9635 17.5575 12.8083 17.5575 12.4978 17.5575H11.0003C10.0669 17.5575 9.60019 17.5575 9.24368 17.3758C8.93007 17.216 8.6751 16.9611 8.51532 16.6475C8.33366 16.2909 8.33366 15.8242 8.33366 14.8908V12.7956C8.33366 11.8622 8.33366 11.3954 8.51532 11.0389C8.6751 10.7253 8.93007 10.4704 9.24368 10.3106C9.60019 10.1289 10.0669 10.1289 11.0003 10.1289H15.667C16.6004 10.1289 17.0671 10.1289 17.4236 10.3106C17.7372 10.4704 17.9922 10.7253 18.152 11.0389C18.3337 11.3954 18.3337 11.8622 18.3337 12.7956V15.0575C18.3337 15.834 18.3337 16.2223 18.2068 16.5286C18.0376 16.937 17.7132 17.2615 17.3048 17.4306C16.9985 17.5575 16.6102 17.5575 15.8337 17.5575V19.2956Z" stroke="#667085" stroke-width="1.66667" stroke-linecap="round" stroke-linejoin="round"/>
</g>
<defs>
<clipPath id="clip0_236_43648">
<rect width="20" height="20" fill="white" transform="translate(0 0.960938)"/>
</clipPath>
</defs>
</svg>
