<svg width="24" height="25" viewBox="0 0 24 25" fill="none" xmlns="http://www.w3.org/2000/svg">
<g clip-path="url(#clip0_178_37534)">
<path d="M22.2234 0.603516H1.77187C0.792187 0.603516 0 1.37695 0 2.3332V22.8691C0 23.8254 0.792187 24.6035 1.77187 24.6035H22.2234C23.2031 24.6035 24 23.8254 24 22.8738V2.3332C24 1.37695 23.2031 0.603516 22.2234 0.603516ZM7.12031 21.0551H3.55781V9.59883H7.12031V21.0551ZM5.33906 8.03789C4.19531 8.03789 3.27188 7.11445 3.27188 5.97539C3.27188 4.83633 4.19531 3.91289 5.33906 3.91289C6.47813 3.91289 7.40156 4.83633 7.40156 5.97539C7.40156 7.10977 6.47813 8.03789 5.33906 8.03789ZM20.4516 21.0551H16.8937V15.4863C16.8937 14.1598 16.8703 12.4488 15.0422 12.4488C13.1906 12.4488 12.9094 13.8973 12.9094 15.3926V21.0551H9.35625V9.59883H12.7687V11.1645H12.8156C13.2891 10.2645 14.4516 9.31289 16.1813 9.31289C19.7859 9.31289 20.4516 11.6848 20.4516 14.7691V21.0551V21.0551Z" fill="#196E8C"/>
</g>
<defs>
<clipPath id="clip0_178_37534">
<rect width="24" height="24" fill="white" transform="translate(0 0.603516)"/>
</clipPath>
</defs>
</svg>
