<svg width="40" height="41" viewBox="0 0 40 41" fill="none" xmlns="http://www.w3.org/2000/svg">
<path d="M35 40.209H11C9.20507 40.209 7.75 38.7539 7.75 36.959V4.95899C7.75 3.16406 9.20508 1.70898 11 1.70898H27C27.1212 1.70898 27.2375 1.75714 27.3232 1.84287L38.1161 12.6358C38.2018 12.7215 38.25 12.8378 38.25 12.959V36.959C38.25 38.7539 36.7949 40.209 35 40.209Z" fill="white" stroke="#D0D5DD" stroke-width="1.5"/>
<path d="M27 1.45898V8.95898C27 11.1681 28.7909 12.959 31 12.959H38.5" stroke="#D0D5DD" stroke-width="1.5"/>
<rect x="1" y="18.959" width="26" height="16" rx="2" fill="#D92D20"/>
<path d="M4.8323 30.959V23.6863H7.70162C8.25323 23.6863 8.72316 23.7916 9.11142 24.0023C9.49967 24.2106 9.7956 24.5007 9.9992 24.8723C10.2052 25.2417 10.3082 25.6678 10.3082 26.1507C10.3082 26.6337 10.204 27.0598 9.99565 27.4292C9.78732 27.7985 9.48547 28.0861 9.09011 28.2921C8.69712 28.498 8.22127 28.601 7.66255 28.601H5.83372V27.3688H7.41397C7.7099 27.3688 7.95375 27.3179 8.14551 27.2161C8.33964 27.1119 8.48405 26.9687 8.57875 26.7864C8.67581 26.6017 8.72434 26.3899 8.72434 26.1507C8.72434 25.9093 8.67581 25.6986 8.57875 25.5186C8.48405 25.3364 8.33964 25.1955 8.14551 25.0961C7.95138 24.9943 7.70517 24.9434 7.40687 24.9434H6.36994V30.959H4.8323ZM13.885 30.959H11.3069V23.6863H13.9063C14.6379 23.6863 15.2676 23.8319 15.7955 24.123C16.3235 24.4119 16.7295 24.8274 17.0136 25.3695C17.3 25.9116 17.4433 26.5603 17.4433 27.3155C17.4433 28.0731 17.3 28.7241 17.0136 29.2686C16.7295 29.8132 16.3211 30.231 15.7884 30.5222C15.2581 30.8134 14.6237 30.959 13.885 30.959ZM12.8445 29.6415H13.8211C14.2757 29.6415 14.658 29.561 14.9681 29.4C15.2806 29.2367 15.515 28.9846 15.6713 28.6436C15.8299 28.3004 15.9092 27.8577 15.9092 27.3155C15.9092 26.7781 15.8299 26.339 15.6713 25.998C15.515 25.6571 15.2818 25.4062 14.9717 25.2452C14.6615 25.0842 14.2792 25.0037 13.8247 25.0037H12.8445V29.6415ZM18.5823 30.959V23.6863H23.3976V24.954H20.1199V26.687H23.078V27.9547H20.1199V30.959H18.5823Z" fill="white"/>
</svg>
