<svg width="21" height="20" viewBox="0 0 21 20" fill="none" xmlns="http://www.w3.org/2000/svg">
<path d="M8.32936 16.1424L8.8164 17.2378C8.96118 17.5639 9.19747 17.8409 9.49659 18.0353C9.79571 18.2298 10.1448 18.3332 10.5016 18.3332C10.8583 18.3332 11.2075 18.2298 11.5066 18.0353C11.8057 17.8409 12.042 17.5639 12.1868 17.2378L12.6738 16.1424C12.8472 15.7538 13.1388 15.4297 13.5071 15.2165C13.8778 15.0027 14.3066 14.9116 14.7321 14.9563L15.9238 15.0832C16.2785 15.1207 16.6365 15.0545 16.9544 14.8926C17.2722 14.7307 17.5363 14.4801 17.7145 14.1711C17.893 13.8623 17.9781 13.5084 17.9593 13.1522C17.9406 12.7961 17.8189 12.453 17.609 12.1647L16.9034 11.1952C16.6522 10.8474 16.518 10.4289 16.5201 9.99984C16.52 9.57199 16.6555 9.15513 16.9071 8.8091L17.6127 7.83965C17.8226 7.5513 17.9443 7.20823 17.963 6.85207C17.9818 6.4959 17.8967 6.14195 17.7183 5.83317C17.54 5.5242 17.2759 5.27358 16.9581 5.11169C16.6402 4.94981 16.2822 4.88361 15.9275 4.92113L14.7358 5.04799C14.3103 5.09268 13.8815 5.00161 13.5108 4.7878C13.1418 4.57338 12.8501 4.24764 12.6775 3.85725L12.1868 2.76187C12.042 2.43581 11.8057 2.15877 11.5066 1.96434C11.2075 1.76991 10.8583 1.66645 10.5016 1.6665C10.1448 1.66645 9.79571 1.76991 9.49659 1.96434C9.19747 2.15877 8.96118 2.43581 8.8164 2.76187L8.32936 3.85725C8.1568 4.24764 7.86509 4.57338 7.49603 4.7878C7.12538 5.00161 6.69659 5.09268 6.27103 5.04799L5.07566 4.92113C4.72094 4.88361 4.36294 4.94981 4.04509 5.11169C3.72724 5.27358 3.46317 5.5242 3.28492 5.83317C3.10644 6.14195 3.02141 6.4959 3.04014 6.85207C3.05888 7.20823 3.18058 7.5513 3.39048 7.83965L4.09603 8.8091C4.34765 9.15513 4.48315 9.57199 4.48307 9.99984C4.48315 10.4277 4.34765 10.8445 4.09603 11.1906L3.39048 12.16C3.18058 12.4484 3.05888 12.7914 3.04014 13.1476C3.02141 13.5038 3.10644 13.8577 3.28492 14.1665C3.46335 14.4753 3.72744 14.7258 4.04525 14.8877C4.36306 15.0495 4.72096 15.1158 5.07566 15.0785L6.26733 14.9517C6.69288 14.907 7.12167 14.9981 7.49233 15.2119C7.86277 15.4257 8.15583 15.7515 8.32936 16.1424Z" stroke="#344054" stroke-width="1.66667" stroke-linecap="round" stroke-linejoin="round"/>
<path d="M10.5001 12.4998C11.8808 12.4998 13.0001 11.3805 13.0001 9.99984C13.0001 8.61913 11.8808 7.49984 10.5001 7.49984C9.11939 7.49984 8.0001 8.61913 8.0001 9.99984C8.0001 11.3805 9.11939 12.4998 10.5001 12.4998Z" stroke="#344054" stroke-width="1.66667" stroke-linecap="round" stroke-linejoin="round"/>
</svg>
