<svg width="20" height="20" viewBox="0 0 20 20" fill="none" xmlns="http://www.w3.org/2000/svg">
<g clip-path="url(#clip0_379_92927)">
<path d="M9.53834 1.60996C9.70914 1.19932 10.2909 1.19932 10.4617 1.60996L12.5278 6.57744C12.5998 6.75056 12.7626 6.86885 12.9495 6.88383L18.3123 7.31376C18.7556 7.3493 18.9354 7.90256 18.5976 8.19189L14.5117 11.6919C14.3693 11.8139 14.3071 12.0053 14.3506 12.1876L15.5989 17.4208C15.7021 17.8534 15.2315 18.1954 14.8519 17.9635L10.2606 15.1592C10.1006 15.0615 9.89938 15.0615 9.73937 15.1592L5.14806 17.9635C4.76851 18.1954 4.29788 17.8534 4.40108 17.4208L5.64939 12.1876C5.69289 12.0053 5.6307 11.8139 5.48831 11.6919L1.40241 8.19189C1.06464 7.90256 1.24441 7.3493 1.68773 7.31376L7.05054 6.88383C7.23744 6.86885 7.40024 6.75056 7.47225 6.57744L9.53834 1.60996Z" fill="#F2F4F7"/>
<g clip-path="url(#clip1_379_92927)">
<path d="M9.53834 1.60996C9.70914 1.19932 10.2909 1.19932 10.4617 1.60996L12.5278 6.57744C12.5998 6.75056 12.7626 6.86885 12.9495 6.88383L18.3123 7.31376C18.7556 7.3493 18.9354 7.90256 18.5976 8.19189L14.5117 11.6919C14.3693 11.8139 14.3071 12.0053 14.3506 12.1876L15.5989 17.4208C15.7021 17.8534 15.2315 18.1954 14.8519 17.9635L10.2606 15.1592C10.1006 15.0615 9.89938 15.0615 9.73937 15.1592L5.14806 17.9635C4.76851 18.1954 4.29788 17.8534 4.40108 17.4208L5.64939 12.1876C5.69289 12.0053 5.6307 11.8139 5.48831 11.6919L1.40241 8.19189C1.06464 7.90256 1.24441 7.3493 1.68773 7.31376L7.05054 6.88383C7.23744 6.86885 7.40024 6.75056 7.47225 6.57744L9.53834 1.60996Z" fill="#D0D5DD"/>
<path fill-rule="evenodd" clip-rule="evenodd" d="M10.0001 1.29285C9.81194 1.29285 9.62381 1.39551 9.53841 1.60083L7.47232 6.56831C7.40031 6.74143 7.23751 6.85971 7.05061 6.8747L1.6878 7.30463C1.24447 7.34017 1.06471 7.89343 1.40248 8.18276L5.48838 11.6828C5.63077 11.8047 5.69296 11.9961 5.64945 12.1785L4.40114 17.4117C4.29795 17.8443 4.76858 18.1862 5.14813 17.9544L9.73944 15.1501C9.81944 15.1012 9.90976 15.0768 10.0001 15.0768V1.29285Z" fill="#FEC84B"/>
</g>
</g>
<defs>
<clipPath id="clip0_379_92927">
<rect width="20" height="20" fill="white"/>
</clipPath>
<clipPath id="clip1_379_92927">
<rect width="20" height="20" fill="white"/>
</clipPath>
</defs>
</svg>
