<svg width="21" height="20" viewBox="0 0 21 20" fill="none" xmlns="http://www.w3.org/2000/svg">
<path d="M13.5294 4.99935V4.33268C13.5294 3.39926 13.5294 2.93255 13.3477 2.57603C13.1879 2.26243 12.933 2.00746 12.6194 1.84767C12.2628 1.66602 11.7961 1.66602 10.8627 1.66602H9.52938C8.59596 1.66602 8.12925 1.66602 7.77273 1.84767C7.45912 2.00746 7.20416 2.26243 7.04437 2.57603C6.86271 2.93255 6.86271 3.39926 6.86271 4.33268V4.99935M8.52938 9.58268V13.7493M11.8627 9.58268V13.7493M2.69604 4.99935H17.696M16.0294 4.99935V14.3327C16.0294 15.7328 16.0294 16.4329 15.7569 16.9677C15.5172 17.4381 15.1348 17.8205 14.6644 18.0602C14.1296 18.3327 13.4295 18.3327 12.0294 18.3327H8.36271C6.96258 18.3327 6.26251 18.3327 5.72774 18.0602C5.25733 17.8205 4.87488 17.4381 4.6352 16.9677C4.36271 16.4329 4.36271 15.7328 4.36271 14.3327V4.99935" stroke="#344054" stroke-width="1.66667" stroke-linecap="round" stroke-linejoin="round"/>
</svg>
