<svg width="20" height="21" viewBox="0 0 20 21" fill="none" xmlns="http://www.w3.org/2000/svg">
<g clip-path="url(#clip0_236_43837)">
<path d="M9.16699 4.29511H5.66699C4.26686 4.29511 3.5668 4.29511 3.03202 4.5676C2.56161 4.80728 2.17916 5.18973 1.93948 5.66014C1.66699 6.19491 1.66699 6.89498 1.66699 8.29511V15.2951C1.66699 16.6952 1.66699 17.3953 1.93948 17.9301C2.17916 18.4005 2.56161 18.7829 3.03202 19.0226C3.5668 19.2951 4.26686 19.2951 5.66699 19.2951H12.667C14.0671 19.2951 14.7672 19.2951 15.302 19.0226C15.7724 18.7829 16.1548 18.4005 16.3945 17.9301C16.667 17.3953 16.667 16.6952 16.667 15.2951V11.7951M6.66697 14.2951H8.06242C8.47007 14.2951 8.6739 14.2951 8.86571 14.2491C9.03577 14.2082 9.19835 14.1409 9.34747 14.0495C9.51566 13.9464 9.65979 13.8023 9.94804 13.5141L17.917 5.54511C18.6073 4.85476 18.6073 3.73547 17.917 3.04511C17.2266 2.35476 16.1073 2.35475 15.417 3.04511L7.44802 11.0141C7.15977 11.3023 7.01564 11.4464 6.91257 11.6146C6.82119 11.7638 6.75385 11.9263 6.71302 12.0964C6.66697 12.2882 6.66697 12.492 6.66697 12.8997V14.2951Z" stroke="#667085" stroke-width="1.66667" stroke-linecap="round" stroke-linejoin="round"/>
</g>
<defs>
<clipPath id="clip0_236_43837">
<rect width="20" height="20" fill="white" transform="translate(0 0.960938)"/>
</clipPath>
</defs>
</svg>
