<svg width="60" height="60" viewBox="0 0 60 60" fill="none" xmlns="http://www.w3.org/2000/svg">
<g filter="url(#filter0_d_105_41305)">
<rect x="2" y="1" width="56" height="56" rx="12" fill="white"/>
<path d="M30.0002 17.333V18.4997M19.5002 28.9997H18.3335M22.4168 21.4163L21.7167 20.7162M37.5835 21.4163L38.2838 20.7162M41.6668 28.9997H40.5002M27.6668 30.7497H32.3335M30.0002 30.7497V36.583M34.0835 34.686C35.8499 33.4152 37.0002 31.3418 37.0002 28.9997C37.0002 25.1337 33.8662 21.9997 30.0002 21.9997C26.1342 21.9997 23.0002 25.1337 23.0002 28.9997C23.0002 31.3418 24.1504 33.4152 25.9168 34.686V36.933C25.9168 38.2398 25.9168 38.8932 26.1711 39.3923C26.3949 39.8314 26.7518 40.1883 27.1909 40.412C27.69 40.6663 28.3434 40.6663 29.6502 40.6663H30.3502C31.657 40.6663 32.3103 40.6663 32.8095 40.412C33.2485 40.1883 33.6055 39.8314 33.8292 39.3923C34.0835 38.8932 34.0835 38.2398 34.0835 36.933V34.686Z" stroke="#344054" stroke-width="2" stroke-linecap="round" stroke-linejoin="round"/>
<rect x="2.5" y="1.5" width="55" height="55" rx="11.5" stroke="#EAECF0"/>
</g>
<defs>
<filter id="filter0_d_105_41305" x="0" y="0" width="60" height="60" filterUnits="userSpaceOnUse" color-interpolation-filters="sRGB">
<feFlood flood-opacity="0" result="BackgroundImageFix"/>
<feColorMatrix in="SourceAlpha" type="matrix" values="0 0 0 0 0 0 0 0 0 0 0 0 0 0 0 0 0 0 127 0" result="hardAlpha"/>
<feOffset dy="1"/>
<feGaussianBlur stdDeviation="1"/>
<feColorMatrix type="matrix" values="0 0 0 0 0.0627451 0 0 0 0 0.0941176 0 0 0 0 0.156863 0 0 0 0.05 0"/>
<feBlend mode="normal" in2="BackgroundImageFix" result="effect1_dropShadow_105_41305"/>
<feBlend mode="normal" in="SourceGraphic" in2="effect1_dropShadow_105_41305" result="shape"/>
</filter>
</defs>
</svg>
