<svg width="24" height="25" viewBox="0 0 24 25" fill="none" xmlns="http://www.w3.org/2000/svg">
<path d="M23.7609 7.8043C23.7609 7.8043 23.5266 6.14961 22.8047 5.42305C21.8906 4.4668 20.8688 4.46211 20.4 4.40586C17.0438 4.16211 12.0047 4.16211 12.0047 4.16211H11.9953C11.9953 4.16211 6.95625 4.16211 3.6 4.40586C3.13125 4.46211 2.10938 4.4668 1.19531 5.42305C0.473438 6.14961 0.24375 7.8043 0.24375 7.8043C0.24375 7.8043 0 9.74961 0 11.6902V13.509C0 15.4496 0.239062 17.3949 0.239062 17.3949C0.239062 17.3949 0.473437 19.0496 1.19062 19.7762C2.10469 20.7324 3.30469 20.6996 3.83906 20.8027C5.76094 20.9855 12 21.0418 12 21.0418C12 21.0418 17.0438 21.0324 20.4 20.7934C20.8688 20.7371 21.8906 20.7324 22.8047 19.7762C23.5266 19.0496 23.7609 17.3949 23.7609 17.3949C23.7609 17.3949 24 15.4543 24 13.509V11.6902C24 9.74961 23.7609 7.8043 23.7609 7.8043ZM9.52031 15.7168V8.97148L16.0031 12.3559L9.52031 15.7168Z" fill="#196E8C"/>
</svg>
