<svg width="20" height="20" viewBox="0 0 20 20" fill="none" xmlns="http://www.w3.org/2000/svg">
<path d="M9.99984 1.66699V2.50033M2.49984 10.0003H1.6665M4.58317 4.58366L4.08309 4.08358M15.4165 4.58366L15.9167 4.08358M18.3332 10.0003H17.4998M8.33317 11.2503H11.6665M9.99984 11.2503V15.417M12.9165 14.062C14.1782 13.1543 14.9998 11.6733 14.9998 10.0003C14.9998 7.2389 12.7613 5.00033 9.99984 5.00033C7.23841 5.00033 4.99984 7.2389 4.99984 10.0003C4.99984 11.6733 5.82145 13.1543 7.08317 14.062V15.667C7.08317 16.6004 7.08317 17.0671 7.26483 17.4236C7.42462 17.7372 7.67958 17.9922 7.99319 18.152C8.34971 18.3337 8.81642 18.3337 9.74984 18.3337H10.2498C11.1833 18.3337 11.65 18.3337 12.0065 18.152C12.3201 17.9922 12.5751 17.7372 12.7348 17.4236C12.9165 17.0671 12.9165 16.6004 12.9165 15.667V14.062Z" stroke="#1D2939" stroke-linecap="round" stroke-linejoin="round"/>
</svg>
