<svg width="20" height="21" viewBox="0 0 20 21" fill="none" xmlns="http://www.w3.org/2000/svg">
<path d="M9.99967 12.9873L7.49967 10.4873M9.99967 12.9873C11.1637 12.5446 12.2804 11.9862 13.333 11.3206M9.99967 12.9873V17.154C9.99967 17.154 12.5247 16.6956 13.333 15.4873C14.233 14.1373 13.333 11.3206 13.333 11.3206M7.49967 10.4873C7.94313 9.33681 8.50151 8.23401 9.16634 7.19562C10.1373 5.64311 11.4894 4.36483 13.0938 3.48236C14.6983 2.5999 16.5019 2.1426 18.333 2.15395C18.333 4.42062 17.683 8.40395 13.333 11.3206M7.49967 10.4873H3.33301C3.33301 10.4873 3.79134 7.96229 4.99967 7.15395C6.34967 6.25395 9.16634 7.15395 9.16634 7.15395M3.74967 14.2373C2.49967 15.2873 2.08301 18.404 2.08301 18.404C2.08301 18.404 5.19967 17.9873 6.24967 16.7373C6.84134 16.0373 6.83301 14.9623 6.17467 14.3123C5.85076 14.0031 5.42409 13.8245 4.97653 13.8106C4.52897 13.7968 4.09207 13.9487 3.74967 14.2373Z" stroke="black" stroke-width="1.66667" stroke-linecap="round" stroke-linejoin="round"/>
</svg>
