<svg width="72" height="72" viewBox="0 0 72 72" fill="none" xmlns="http://www.w3.org/2000/svg">
<path d="M36 6V9M9 36H6M16.5 16.5L14.6997 14.6997M55.5 16.5L57.3007 14.6997M66 36H63M30 40.5H42M36 40.5V55.5M46.5 50.6219C51.0422 47.3543 54 42.0226 54 36C54 26.0589 45.9411 18 36 18C26.0589 18 18 26.0589 18 36C18 42.0226 20.9578 47.3543 25.5 50.6219V56.4C25.5 59.7603 25.5 61.4405 26.154 62.7239C26.7292 63.8529 27.6471 64.7708 28.7761 65.346C30.0595 66 31.7397 66 35.1 66H36.9C40.2603 66 41.9405 66 43.2239 65.346C44.3529 64.7708 45.2708 63.8529 45.846 62.7239C46.5 61.4405 46.5 59.7603 46.5 56.4V50.6219Z" stroke="white" stroke-width="3" stroke-linecap="round" stroke-linejoin="round"/>
</svg>
