<svg width="24" height="25" viewBox="0 0 24 25" fill="none" xmlns="http://www.w3.org/2000/svg">
<g clip-path="url(#clip0_178_37528)">
<path d="M24 12.6035C24 5.97609 18.6274 0.603516 12 0.603516C5.37258 0.603516 0 5.97609 0 12.6035C0 18.593 4.3882 23.5575 10.125 24.4577V16.0723H7.07812V12.6035H10.125V9.95977C10.125 6.95227 11.9166 5.29102 14.6576 5.29102C15.9701 5.29102 17.3438 5.52539 17.3438 5.52539V8.47852H15.8306C14.34 8.47852 13.875 9.40359 13.875 10.3535V12.6035H17.2031L16.6711 16.0723H13.875V24.4577C19.6118 23.5575 24 18.593 24 12.6035Z" fill="#196E8C"/>
</g>
<defs>
<clipPath id="clip0_178_37528">
<rect width="24" height="24" fill="white" transform="translate(0 0.603516)"/>
</clipPath>
</defs>
</svg>
